<mxfile host="app.diagrams.net" agent="Mozilla/5.0 (Windows NT 10.0; Win64; x64) AppleWebKit/537.36 (KHTML, like Gecko) Chrome/141.0.0.0 Safari/537.36" version="28.2.8">
  <diagram name="Página-1" id="g4KZnRjiAGzGaOI6Kl5A">
    <mxGraphModel dx="2037" dy="1110" grid="1" gridSize="10" guides="1" tooltips="1" connect="1" arrows="1" fold="1" page="1" pageScale="1" pageWidth="827" pageHeight="1169" math="0" shadow="0">
      <root>
        <mxCell id="0" />
        <mxCell id="1" parent="0" />
        <mxCell id="HIOsKw_7owf2i7YKwUBt-1" value="usuário" style="rounded=1;whiteSpace=wrap;html=1;" parent="1" vertex="1">
          <mxGeometry x="109" y="740" width="120" height="60" as="geometry" />
        </mxCell>
        <mxCell id="HIOsKw_7owf2i7YKwUBt-2" value="compra" style="rhombus;whiteSpace=wrap;html=1;rounded=1;" parent="1" vertex="1">
          <mxGeometry x="129" y="870" width="80" height="80" as="geometry" />
        </mxCell>
        <mxCell id="HIOsKw_7owf2i7YKwUBt-4" value="produto" style="whiteSpace=wrap;html=1;rounded=1;" parent="1" vertex="1">
          <mxGeometry x="109" y="1040" width="120" height="60" as="geometry" />
        </mxCell>
        <mxCell id="HIOsKw_7owf2i7YKwUBt-6" value="" style="endArrow=none;html=1;rounded=0;exitX=0.5;exitY=0;exitDx=0;exitDy=0;entryX=0.5;entryY=1;entryDx=0;entryDy=0;" parent="1" source="HIOsKw_7owf2i7YKwUBt-4" target="HIOsKw_7owf2i7YKwUBt-2" edge="1">
          <mxGeometry width="50" height="50" relative="1" as="geometry">
            <mxPoint x="339" y="1110" as="sourcePoint" />
            <mxPoint x="389" y="1060" as="targetPoint" />
          </mxGeometry>
        </mxCell>
        <mxCell id="HIOsKw_7owf2i7YKwUBt-10" value="" style="endArrow=none;html=1;rounded=0;exitX=0.5;exitY=0;exitDx=0;exitDy=0;entryX=0.5;entryY=1;entryDx=0;entryDy=0;" parent="1" source="HIOsKw_7owf2i7YKwUBt-2" target="HIOsKw_7owf2i7YKwUBt-1" edge="1">
          <mxGeometry width="50" height="50" relative="1" as="geometry">
            <mxPoint x="339" y="1110" as="sourcePoint" />
            <mxPoint x="389" y="1060" as="targetPoint" />
          </mxGeometry>
        </mxCell>
        <mxCell id="HIOsKw_7owf2i7YKwUBt-12" value="0,1" style="text;html=1;whiteSpace=wrap;strokeColor=none;fillColor=none;align=center;verticalAlign=middle;rounded=0;" parent="1" vertex="1">
          <mxGeometry x="179" y="810" width="60" height="30" as="geometry" />
        </mxCell>
        <mxCell id="HIOsKw_7owf2i7YKwUBt-13" value="0,N" style="text;html=1;whiteSpace=wrap;strokeColor=none;fillColor=none;align=center;verticalAlign=middle;rounded=0;" parent="1" vertex="1">
          <mxGeometry x="179" y="950" width="60" height="30" as="geometry" />
        </mxCell>
        <mxCell id="HIOsKw_7owf2i7YKwUBt-14" value="Filme" style="rounded=1;whiteSpace=wrap;html=1;" parent="1" vertex="1">
          <mxGeometry x="399" y="740" width="120" height="60" as="geometry" />
        </mxCell>
        <mxCell id="HIOsKw_7owf2i7YKwUBt-15" value="compra" style="rhombus;whiteSpace=wrap;html=1;rounded=1;" parent="1" vertex="1">
          <mxGeometry x="419" y="870" width="80" height="80" as="geometry" />
        </mxCell>
        <mxCell id="HIOsKw_7owf2i7YKwUBt-16" value="Categoria" style="whiteSpace=wrap;html=1;rounded=1;" parent="1" vertex="1">
          <mxGeometry x="399" y="1040" width="120" height="60" as="geometry" />
        </mxCell>
        <mxCell id="HIOsKw_7owf2i7YKwUBt-17" value="" style="endArrow=none;html=1;rounded=0;exitX=0.5;exitY=0;exitDx=0;exitDy=0;entryX=0.5;entryY=1;entryDx=0;entryDy=0;" parent="1" source="HIOsKw_7owf2i7YKwUBt-16" target="HIOsKw_7owf2i7YKwUBt-15" edge="1">
          <mxGeometry width="50" height="50" relative="1" as="geometry">
            <mxPoint x="629" y="1110" as="sourcePoint" />
            <mxPoint x="679" y="1060" as="targetPoint" />
          </mxGeometry>
        </mxCell>
        <mxCell id="HIOsKw_7owf2i7YKwUBt-18" value="" style="endArrow=none;html=1;rounded=0;exitX=0.5;exitY=0;exitDx=0;exitDy=0;entryX=0.5;entryY=1;entryDx=0;entryDy=0;" parent="1" source="HIOsKw_7owf2i7YKwUBt-15" target="HIOsKw_7owf2i7YKwUBt-14" edge="1">
          <mxGeometry width="50" height="50" relative="1" as="geometry">
            <mxPoint x="629" y="1110" as="sourcePoint" />
            <mxPoint x="679" y="1060" as="targetPoint" />
          </mxGeometry>
        </mxCell>
        <mxCell id="HIOsKw_7owf2i7YKwUBt-19" value="0,N" style="text;html=1;whiteSpace=wrap;strokeColor=none;fillColor=none;align=center;verticalAlign=middle;rounded=0;" parent="1" vertex="1">
          <mxGeometry x="469" y="800" width="60" height="30" as="geometry" />
        </mxCell>
        <mxCell id="HIOsKw_7owf2i7YKwUBt-20" value="1,1" style="text;html=1;whiteSpace=wrap;strokeColor=none;fillColor=none;align=center;verticalAlign=middle;rounded=0;" parent="1" vertex="1">
          <mxGeometry x="469" y="1010" width="60" height="30" as="geometry" />
        </mxCell>
        <mxCell id="HIOsKw_7owf2i7YKwUBt-21" value="Filme" style="rounded=1;whiteSpace=wrap;html=1;" parent="1" vertex="1">
          <mxGeometry x="719" y="740" width="120" height="60" as="geometry" />
        </mxCell>
        <mxCell id="HIOsKw_7owf2i7YKwUBt-22" value="compra" style="rhombus;whiteSpace=wrap;html=1;rounded=1;" parent="1" vertex="1">
          <mxGeometry x="739" y="870" width="80" height="80" as="geometry" />
        </mxCell>
        <mxCell id="HIOsKw_7owf2i7YKwUBt-23" value="Categoria" style="whiteSpace=wrap;html=1;rounded=1;" parent="1" vertex="1">
          <mxGeometry x="719" y="1040" width="120" height="60" as="geometry" />
        </mxCell>
        <mxCell id="HIOsKw_7owf2i7YKwUBt-24" value="" style="endArrow=none;html=1;rounded=0;exitX=0.5;exitY=0;exitDx=0;exitDy=0;entryX=0.5;entryY=1;entryDx=0;entryDy=0;" parent="1" source="HIOsKw_7owf2i7YKwUBt-23" target="HIOsKw_7owf2i7YKwUBt-22" edge="1">
          <mxGeometry width="50" height="50" relative="1" as="geometry">
            <mxPoint x="949" y="1110" as="sourcePoint" />
            <mxPoint x="999" y="1060" as="targetPoint" />
          </mxGeometry>
        </mxCell>
        <mxCell id="HIOsKw_7owf2i7YKwUBt-25" value="" style="endArrow=none;html=1;rounded=0;exitX=0.5;exitY=0;exitDx=0;exitDy=0;entryX=0.5;entryY=1;entryDx=0;entryDy=0;" parent="1" source="HIOsKw_7owf2i7YKwUBt-22" target="HIOsKw_7owf2i7YKwUBt-21" edge="1">
          <mxGeometry width="50" height="50" relative="1" as="geometry">
            <mxPoint x="949" y="1110" as="sourcePoint" />
            <mxPoint x="999" y="1060" as="targetPoint" />
          </mxGeometry>
        </mxCell>
        <mxCell id="HIOsKw_7owf2i7YKwUBt-26" value="1,1" style="text;html=1;whiteSpace=wrap;strokeColor=none;fillColor=none;align=center;verticalAlign=middle;rounded=0;" parent="1" vertex="1">
          <mxGeometry x="789" y="800" width="60" height="30" as="geometry" />
        </mxCell>
        <mxCell id="HIOsKw_7owf2i7YKwUBt-27" value="0,N" style="text;html=1;whiteSpace=wrap;strokeColor=none;fillColor=none;align=center;verticalAlign=middle;rounded=0;" parent="1" vertex="1">
          <mxGeometry x="789" y="1010" width="60" height="30" as="geometry" />
        </mxCell>
        <mxCell id="u2NiC6RPRk2Zida4HsQ2-1" value="usuário" style="rounded=0;whiteSpace=wrap;html=1;" vertex="1" parent="1">
          <mxGeometry x="60.25" y="20" width="120" height="60" as="geometry" />
        </mxCell>
        <mxCell id="u2NiC6RPRk2Zida4HsQ2-2" value="produto" style="rounded=0;whiteSpace=wrap;html=1;" vertex="1" parent="1">
          <mxGeometry x="360.25" y="25" width="120" height="60" as="geometry" />
        </mxCell>
        <mxCell id="u2NiC6RPRk2Zida4HsQ2-3" value="" style="edgeStyle=orthogonalEdgeStyle;rounded=0;orthogonalLoop=1;jettySize=auto;html=1;" edge="1" parent="1" source="u2NiC6RPRk2Zida4HsQ2-4" target="u2NiC6RPRk2Zida4HsQ2-2">
          <mxGeometry relative="1" as="geometry" />
        </mxCell>
        <mxCell id="u2NiC6RPRk2Zida4HsQ2-4" value="compra" style="rhombus;whiteSpace=wrap;html=1;" vertex="1" parent="1">
          <mxGeometry x="250.25" y="30" width="50" height="50" as="geometry" />
        </mxCell>
        <mxCell id="u2NiC6RPRk2Zida4HsQ2-5" value="0,1" style="text;html=1;whiteSpace=wrap;strokeColor=none;fillColor=none;align=center;verticalAlign=middle;rounded=0;" vertex="1" parent="1">
          <mxGeometry x="190.25" y="25" width="60" height="30" as="geometry" />
        </mxCell>
        <mxCell id="u2NiC6RPRk2Zida4HsQ2-6" value="" style="endArrow=classic;html=1;rounded=0;entryX=0;entryY=0.5;entryDx=0;entryDy=0;" edge="1" parent="1" target="u2NiC6RPRk2Zida4HsQ2-4">
          <mxGeometry width="50" height="50" relative="1" as="geometry">
            <mxPoint x="180.25" y="55" as="sourcePoint" />
            <mxPoint x="220.25" y="55" as="targetPoint" />
            <Array as="points">
              <mxPoint x="240.25" y="55" />
            </Array>
          </mxGeometry>
        </mxCell>
        <mxCell id="u2NiC6RPRk2Zida4HsQ2-7" value="0,N" style="text;html=1;whiteSpace=wrap;strokeColor=none;fillColor=none;align=center;verticalAlign=middle;rounded=0;" vertex="1" parent="1">
          <mxGeometry x="300.25" y="25" width="60" height="30" as="geometry" />
        </mxCell>
        <mxCell id="u2NiC6RPRk2Zida4HsQ2-8" value="Filme" style="rounded=0;whiteSpace=wrap;html=1;" vertex="1" parent="1">
          <mxGeometry x="60.25" y="145" width="120" height="60" as="geometry" />
        </mxCell>
        <mxCell id="u2NiC6RPRk2Zida4HsQ2-9" value="categoria" style="rounded=0;whiteSpace=wrap;html=1;" vertex="1" parent="1">
          <mxGeometry x="360.25" y="150" width="120" height="60" as="geometry" />
        </mxCell>
        <mxCell id="u2NiC6RPRk2Zida4HsQ2-10" value="" style="edgeStyle=orthogonalEdgeStyle;rounded=0;orthogonalLoop=1;jettySize=auto;html=1;" edge="1" parent="1" source="u2NiC6RPRk2Zida4HsQ2-11" target="u2NiC6RPRk2Zida4HsQ2-9">
          <mxGeometry relative="1" as="geometry" />
        </mxCell>
        <mxCell id="u2NiC6RPRk2Zida4HsQ2-11" value="compra" style="rhombus;whiteSpace=wrap;html=1;" vertex="1" parent="1">
          <mxGeometry x="250.25" y="155" width="50" height="50" as="geometry" />
        </mxCell>
        <mxCell id="u2NiC6RPRk2Zida4HsQ2-12" value="0,N" style="text;html=1;whiteSpace=wrap;strokeColor=none;fillColor=none;align=center;verticalAlign=middle;rounded=0;" vertex="1" parent="1">
          <mxGeometry x="180.25" y="150" width="60" height="30" as="geometry" />
        </mxCell>
        <mxCell id="u2NiC6RPRk2Zida4HsQ2-13" value="" style="endArrow=classic;html=1;rounded=0;entryX=0;entryY=0.5;entryDx=0;entryDy=0;" edge="1" parent="1" target="u2NiC6RPRk2Zida4HsQ2-11">
          <mxGeometry width="50" height="50" relative="1" as="geometry">
            <mxPoint x="180.25" y="180" as="sourcePoint" />
            <mxPoint x="220.25" y="180" as="targetPoint" />
            <Array as="points">
              <mxPoint x="240.25" y="180" />
            </Array>
          </mxGeometry>
        </mxCell>
        <mxCell id="u2NiC6RPRk2Zida4HsQ2-14" value="1,1" style="text;html=1;whiteSpace=wrap;strokeColor=none;fillColor=none;align=center;verticalAlign=middle;rounded=0;" vertex="1" parent="1">
          <mxGeometry x="300.25" y="150" width="60" height="30" as="geometry" />
        </mxCell>
        <mxCell id="u2NiC6RPRk2Zida4HsQ2-15" style="edgeStyle=orthogonalEdgeStyle;rounded=0;orthogonalLoop=1;jettySize=auto;html=1;" edge="1" parent="1" source="u2NiC6RPRk2Zida4HsQ2-16" target="u2NiC6RPRk2Zida4HsQ2-21">
          <mxGeometry relative="1" as="geometry" />
        </mxCell>
        <mxCell id="u2NiC6RPRk2Zida4HsQ2-16" value="usuário" style="rounded=0;whiteSpace=wrap;html=1;" vertex="1" parent="1">
          <mxGeometry x="60.25" y="260" width="120" height="60" as="geometry" />
        </mxCell>
        <mxCell id="u2NiC6RPRk2Zida4HsQ2-17" value="telefone" style="rounded=0;whiteSpace=wrap;html=1;" vertex="1" parent="1">
          <mxGeometry x="360.25" y="260" width="120" height="60" as="geometry" />
        </mxCell>
        <mxCell id="u2NiC6RPRk2Zida4HsQ2-18" value="1,1" style="text;html=1;whiteSpace=wrap;strokeColor=none;fillColor=none;align=center;verticalAlign=middle;rounded=0;" vertex="1" parent="1">
          <mxGeometry x="180.25" y="260" width="60" height="30" as="geometry" />
        </mxCell>
        <mxCell id="u2NiC6RPRk2Zida4HsQ2-19" value="0,N" style="text;html=1;whiteSpace=wrap;strokeColor=none;fillColor=none;align=center;verticalAlign=middle;rounded=0;" vertex="1" parent="1">
          <mxGeometry x="300.25" y="260" width="60" height="30" as="geometry" />
        </mxCell>
        <mxCell id="u2NiC6RPRk2Zida4HsQ2-20" style="edgeStyle=orthogonalEdgeStyle;rounded=0;orthogonalLoop=1;jettySize=auto;html=1;entryX=0;entryY=0.5;entryDx=0;entryDy=0;" edge="1" parent="1" source="u2NiC6RPRk2Zida4HsQ2-21" target="u2NiC6RPRk2Zida4HsQ2-17">
          <mxGeometry relative="1" as="geometry" />
        </mxCell>
        <mxCell id="u2NiC6RPRk2Zida4HsQ2-21" value="compra" style="rhombus;whiteSpace=wrap;html=1;" vertex="1" parent="1">
          <mxGeometry x="247.75" y="265" width="52.5" height="50" as="geometry" />
        </mxCell>
        <mxCell id="u2NiC6RPRk2Zida4HsQ2-22" value="usuário" style="rounded=0;whiteSpace=wrap;html=1;fillColor=#f8cecc;strokeColor=#b85450;" vertex="1" parent="1">
          <mxGeometry x="39" y="378" width="120" height="60" as="geometry" />
        </mxCell>
        <mxCell id="u2NiC6RPRk2Zida4HsQ2-23" value="" style="edgeStyle=orthogonalEdgeStyle;rounded=0;orthogonalLoop=1;jettySize=auto;html=1;entryX=0.5;entryY=0;entryDx=0;entryDy=0;endArrow=none;endFill=0;" edge="1" parent="1" source="u2NiC6RPRk2Zida4HsQ2-24" target="u2NiC6RPRk2Zida4HsQ2-30">
          <mxGeometry relative="1" as="geometry" />
        </mxCell>
        <mxCell id="u2NiC6RPRk2Zida4HsQ2-24" value="carro" style="rounded=0;whiteSpace=wrap;html=1;fillColor=#dae8fc;strokeColor=#6c8ebf;" vertex="1" parent="1">
          <mxGeometry x="389" y="383" width="120" height="60" as="geometry" />
        </mxCell>
        <mxCell id="u2NiC6RPRk2Zida4HsQ2-25" value="0,1" style="text;html=1;whiteSpace=wrap;strokeColor=#6c8ebf;fillColor=#dae8fc;align=center;verticalAlign=middle;rounded=0;" vertex="1" parent="1">
          <mxGeometry x="159" y="378" width="60" height="30" as="geometry" />
        </mxCell>
        <mxCell id="u2NiC6RPRk2Zida4HsQ2-26" value="0,N" style="text;html=1;whiteSpace=wrap;strokeColor=#b85450;fillColor=#f8cecc;align=center;verticalAlign=middle;rounded=0;" vertex="1" parent="1">
          <mxGeometry x="329" y="378" width="60" height="30" as="geometry" />
        </mxCell>
        <mxCell id="u2NiC6RPRk2Zida4HsQ2-27" style="edgeStyle=orthogonalEdgeStyle;rounded=0;orthogonalLoop=1;jettySize=auto;html=1;endArrow=none;endFill=0;" edge="1" parent="1" source="u2NiC6RPRk2Zida4HsQ2-22">
          <mxGeometry relative="1" as="geometry">
            <mxPoint x="389" y="408" as="targetPoint" />
          </mxGeometry>
        </mxCell>
        <mxCell id="u2NiC6RPRk2Zida4HsQ2-28" value="compra" style="rhombus;whiteSpace=wrap;html=1;" vertex="1" parent="1">
          <mxGeometry x="249" y="383" width="50" height="50" as="geometry" />
        </mxCell>
        <mxCell id="u2NiC6RPRk2Zida4HsQ2-29" value="possui" style="rhombus;whiteSpace=wrap;html=1;rounded=0;" vertex="1" parent="1">
          <mxGeometry x="414" y="516" width="70" height="53" as="geometry" />
        </mxCell>
        <mxCell id="u2NiC6RPRk2Zida4HsQ2-30" value="marca" style="rounded=0;whiteSpace=wrap;html=1;fillColor=#e1d5e7;strokeColor=#9673a6;" vertex="1" parent="1">
          <mxGeometry x="389" y="626" width="120" height="60" as="geometry" />
        </mxCell>
        <mxCell id="u2NiC6RPRk2Zida4HsQ2-31" value="1,1" style="text;html=1;whiteSpace=wrap;strokeColor=#6c8ebf;fillColor=#dae8fc;align=center;verticalAlign=middle;rounded=0;" vertex="1" parent="1">
          <mxGeometry x="449" y="596" width="60" height="30" as="geometry" />
        </mxCell>
        <mxCell id="u2NiC6RPRk2Zida4HsQ2-32" value="1,N" style="text;html=1;whiteSpace=wrap;strokeColor=#9673a6;fillColor=#e1d5e7;align=center;verticalAlign=middle;rounded=0;" vertex="1" parent="1">
          <mxGeometry x="449" y="443" width="60" height="30" as="geometry" />
        </mxCell>
        <mxCell id="u2NiC6RPRk2Zida4HsQ2-33" style="edgeStyle=orthogonalEdgeStyle;rounded=0;orthogonalLoop=1;jettySize=auto;html=1;entryX=0;entryY=0.5;entryDx=0;entryDy=0;endArrow=none;endFill=0;" edge="1" parent="1" source="u2NiC6RPRk2Zida4HsQ2-35" target="u2NiC6RPRk2Zida4HsQ2-47">
          <mxGeometry relative="1" as="geometry" />
        </mxCell>
        <mxCell id="u2NiC6RPRk2Zida4HsQ2-34" value="" style="edgeStyle=orthogonalEdgeStyle;rounded=0;orthogonalLoop=1;jettySize=auto;html=1;endArrow=none;endFill=0;" edge="1" parent="1" source="u2NiC6RPRk2Zida4HsQ2-35" target="u2NiC6RPRk2Zida4HsQ2-66">
          <mxGeometry relative="1" as="geometry" />
        </mxCell>
        <mxCell id="u2NiC6RPRk2Zida4HsQ2-35" value="USUARIO" style="rounded=0;whiteSpace=wrap;html=1;fillColor=#d5e8d4;strokeColor=#82b366;" vertex="1" parent="1">
          <mxGeometry x="1080" y="215" width="120" height="60" as="geometry" />
        </mxCell>
        <mxCell id="u2NiC6RPRk2Zida4HsQ2-36" value="" style="edgeStyle=orthogonalEdgeStyle;rounded=0;orthogonalLoop=1;jettySize=auto;html=1;endArrow=none;endFill=0;" edge="1" parent="1" source="u2NiC6RPRk2Zida4HsQ2-52" target="u2NiC6RPRk2Zida4HsQ2-50">
          <mxGeometry relative="1" as="geometry" />
        </mxCell>
        <mxCell id="u2NiC6RPRk2Zida4HsQ2-37" style="edgeStyle=orthogonalEdgeStyle;rounded=0;orthogonalLoop=1;jettySize=auto;html=1;entryX=1;entryY=0.5;entryDx=0;entryDy=0;endArrow=none;endFill=0;" edge="1" parent="1" source="u2NiC6RPRk2Zida4HsQ2-38" target="u2NiC6RPRk2Zida4HsQ2-43">
          <mxGeometry relative="1" as="geometry" />
        </mxCell>
        <mxCell id="u2NiC6RPRk2Zida4HsQ2-38" value="PROFESSORES" style="rounded=0;whiteSpace=wrap;html=1;fillColor=#f8cecc;strokeColor=#b85450;" vertex="1" parent="1">
          <mxGeometry x="1233" y="362" width="120" height="60" as="geometry" />
        </mxCell>
        <mxCell id="u2NiC6RPRk2Zida4HsQ2-39" value="" style="edgeStyle=orthogonalEdgeStyle;rounded=0;orthogonalLoop=1;jettySize=auto;html=1;endArrow=none;endFill=0;" edge="1" parent="1" source="u2NiC6RPRk2Zida4HsQ2-40" target="u2NiC6RPRk2Zida4HsQ2-57">
          <mxGeometry relative="1" as="geometry">
            <Array as="points">
              <mxPoint x="863" y="392" />
              <mxPoint x="863" y="392" />
            </Array>
          </mxGeometry>
        </mxCell>
        <mxCell id="u2NiC6RPRk2Zida4HsQ2-40" value="PSICOLOGOS" style="rounded=0;whiteSpace=wrap;html=1;fillColor=#e1d5e7;strokeColor=#9673a6;" vertex="1" parent="1">
          <mxGeometry x="943" y="362" width="120" height="60" as="geometry" />
        </mxCell>
        <mxCell id="u2NiC6RPRk2Zida4HsQ2-41" value="" style="edgeStyle=orthogonalEdgeStyle;rounded=0;orthogonalLoop=1;jettySize=auto;html=1;endArrow=none;endFill=0;entryX=1;entryY=0.5;entryDx=0;entryDy=0;" edge="1" parent="1" source="u2NiC6RPRk2Zida4HsQ2-43" target="u2NiC6RPRk2Zida4HsQ2-40">
          <mxGeometry relative="1" as="geometry" />
        </mxCell>
        <mxCell id="u2NiC6RPRk2Zida4HsQ2-42" style="edgeStyle=orthogonalEdgeStyle;rounded=0;orthogonalLoop=1;jettySize=auto;html=1;entryX=0.5;entryY=1;entryDx=0;entryDy=0;" edge="1" parent="1" source="u2NiC6RPRk2Zida4HsQ2-43" target="u2NiC6RPRk2Zida4HsQ2-35">
          <mxGeometry relative="1" as="geometry" />
        </mxCell>
        <mxCell id="u2NiC6RPRk2Zida4HsQ2-43" value="COMPRA" style="rhombus;whiteSpace=wrap;html=1;rounded=0;" vertex="1" parent="1">
          <mxGeometry x="1103" y="352" width="80" height="80" as="geometry" />
        </mxCell>
        <mxCell id="u2NiC6RPRk2Zida4HsQ2-44" value="USUARIO" style="rounded=0;whiteSpace=wrap;html=1;fillColor=#dae8fc;strokeColor=#6c8ebf;" vertex="1" parent="1">
          <mxGeometry x="1320" y="215" width="120" height="60" as="geometry" />
        </mxCell>
        <mxCell id="u2NiC6RPRk2Zida4HsQ2-45" style="edgeStyle=orthogonalEdgeStyle;rounded=0;orthogonalLoop=1;jettySize=auto;html=1;exitX=1;exitY=0.5;exitDx=0;exitDy=0;entryX=0;entryY=0.5;entryDx=0;entryDy=0;endArrow=none;endFill=0;" edge="1" parent="1" source="u2NiC6RPRk2Zida4HsQ2-47" target="u2NiC6RPRk2Zida4HsQ2-44">
          <mxGeometry relative="1" as="geometry" />
        </mxCell>
        <mxCell id="u2NiC6RPRk2Zida4HsQ2-46" style="edgeStyle=orthogonalEdgeStyle;rounded=0;orthogonalLoop=1;jettySize=auto;html=1;entryX=0.5;entryY=1;entryDx=0;entryDy=0;endArrow=none;endFill=0;" edge="1" parent="1" source="u2NiC6RPRk2Zida4HsQ2-47" target="u2NiC6RPRk2Zida4HsQ2-75">
          <mxGeometry relative="1" as="geometry">
            <mxPoint x="1260" y="93" as="targetPoint" />
            <Array as="points" />
          </mxGeometry>
        </mxCell>
        <mxCell id="u2NiC6RPRk2Zida4HsQ2-47" value="INTERAÇÃO" style="rhombus;whiteSpace=wrap;html=1;rounded=0;" vertex="1" parent="1">
          <mxGeometry x="1220" y="205" width="80" height="80" as="geometry" />
        </mxCell>
        <mxCell id="u2NiC6RPRk2Zida4HsQ2-48" value="0,N" style="text;html=1;whiteSpace=wrap;strokeColor=#6c8ebf;fillColor=#dae8fc;align=center;verticalAlign=middle;rounded=0;" vertex="1" parent="1">
          <mxGeometry x="1140" y="185" width="60" height="30" as="geometry" />
        </mxCell>
        <mxCell id="u2NiC6RPRk2Zida4HsQ2-49" value="0,N" style="text;html=1;whiteSpace=wrap;strokeColor=#82b366;fillColor=#d5e8d4;align=center;verticalAlign=middle;rounded=0;" vertex="1" parent="1">
          <mxGeometry x="1320" y="185" width="60" height="30" as="geometry" />
        </mxCell>
        <mxCell id="u2NiC6RPRk2Zida4HsQ2-50" value="MATERIA" style="whiteSpace=wrap;html=1;fillColor=#bac8d3;strokeColor=#23445d;rounded=0;" vertex="1" parent="1">
          <mxGeometry x="1463" y="362" width="120" height="60" as="geometry" />
        </mxCell>
        <mxCell id="u2NiC6RPRk2Zida4HsQ2-51" value="" style="edgeStyle=orthogonalEdgeStyle;rounded=0;orthogonalLoop=1;jettySize=auto;html=1;endArrow=none;endFill=0;" edge="1" parent="1" source="u2NiC6RPRk2Zida4HsQ2-38" target="u2NiC6RPRk2Zida4HsQ2-52">
          <mxGeometry relative="1" as="geometry">
            <mxPoint x="1353" y="492" as="sourcePoint" />
            <mxPoint x="1573" y="492" as="targetPoint" />
          </mxGeometry>
        </mxCell>
        <mxCell id="u2NiC6RPRk2Zida4HsQ2-52" value="TIPO" style="rhombus;whiteSpace=wrap;html=1;" vertex="1" parent="1">
          <mxGeometry x="1373" y="362" width="60" height="60" as="geometry" />
        </mxCell>
        <mxCell id="u2NiC6RPRk2Zida4HsQ2-53" value="0,N" style="text;html=1;whiteSpace=wrap;strokeColor=#82b366;fillColor=#d5e8d4;align=center;verticalAlign=middle;rounded=0;" vertex="1" parent="1">
          <mxGeometry x="1003" y="332" width="60" height="30" as="geometry" />
        </mxCell>
        <mxCell id="u2NiC6RPRk2Zida4HsQ2-54" value="0,N" style="text;html=1;whiteSpace=wrap;strokeColor=#82b366;fillColor=#d5e8d4;align=center;verticalAlign=middle;rounded=0;" vertex="1" parent="1">
          <mxGeometry x="1233" y="422" width="60" height="30" as="geometry" />
        </mxCell>
        <mxCell id="u2NiC6RPRk2Zida4HsQ2-55" value="" style="edgeStyle=orthogonalEdgeStyle;rounded=0;orthogonalLoop=1;jettySize=auto;html=1;endArrow=none;endFill=0;" edge="1" parent="1" source="u2NiC6RPRk2Zida4HsQ2-57" target="u2NiC6RPRk2Zida4HsQ2-58">
          <mxGeometry relative="1" as="geometry">
            <Array as="points">
              <mxPoint x="803" y="392" />
              <mxPoint x="803" y="392" />
            </Array>
          </mxGeometry>
        </mxCell>
        <mxCell id="u2NiC6RPRk2Zida4HsQ2-56" style="edgeStyle=orthogonalEdgeStyle;rounded=0;orthogonalLoop=1;jettySize=auto;html=1;endArrow=none;endFill=0;" edge="1" parent="1" source="u2NiC6RPRk2Zida4HsQ2-57" target="u2NiC6RPRk2Zida4HsQ2-59">
          <mxGeometry relative="1" as="geometry" />
        </mxCell>
        <mxCell id="u2NiC6RPRk2Zida4HsQ2-57" value="&lt;div&gt;TIPO&lt;/div&gt;" style="rhombus;whiteSpace=wrap;html=1;fillColor=#e1d5e7;strokeColor=#9673a6;rounded=0;" vertex="1" parent="1">
          <mxGeometry x="843" y="362" width="60" height="60" as="geometry" />
        </mxCell>
        <mxCell id="u2NiC6RPRk2Zida4HsQ2-58" value="ESPECIALIZAÇÃO" style="whiteSpace=wrap;html=1;fillColor=#b0e3e6;strokeColor=#0e8088;rounded=0;" vertex="1" parent="1">
          <mxGeometry x="683" y="362" width="120" height="60" as="geometry" />
        </mxCell>
        <mxCell id="u2NiC6RPRk2Zida4HsQ2-59" value="ABORDAGEM" style="whiteSpace=wrap;html=1;fillColor=#b1ddf0;strokeColor=#10739e;rounded=0;" vertex="1" parent="1">
          <mxGeometry x="813" y="452" width="120" height="60" as="geometry" />
        </mxCell>
        <mxCell id="u2NiC6RPRk2Zida4HsQ2-60" value="0,N" style="text;html=1;whiteSpace=wrap;strokeColor=#23445d;fillColor=#bac8d3;align=center;verticalAlign=middle;rounded=0;" vertex="1" parent="1">
          <mxGeometry x="1293" y="422" width="60" height="30" as="geometry" />
        </mxCell>
        <mxCell id="u2NiC6RPRk2Zida4HsQ2-61" value="1,N" style="text;html=1;whiteSpace=wrap;strokeColor=#ae4132;fillColor=#fad9d5;align=center;verticalAlign=middle;rounded=0;" vertex="1" parent="1">
          <mxGeometry x="1463" y="422" width="60" height="30" as="geometry" />
        </mxCell>
        <mxCell id="u2NiC6RPRk2Zida4HsQ2-62" value="0,N" style="text;html=1;whiteSpace=wrap;strokeColor=#0e8088;fillColor=#b0e3e6;align=center;verticalAlign=middle;rounded=0;" vertex="1" parent="1">
          <mxGeometry x="943" y="332" width="60" height="30" as="geometry" />
        </mxCell>
        <mxCell id="u2NiC6RPRk2Zida4HsQ2-63" value="1,N" style="text;html=1;whiteSpace=wrap;strokeColor=#56517e;fillColor=#d0cee2;align=center;verticalAlign=middle;rounded=0;" vertex="1" parent="1">
          <mxGeometry x="813" y="512" width="60" height="30" as="geometry" />
        </mxCell>
        <mxCell id="u2NiC6RPRk2Zida4HsQ2-64" value="1,N" style="text;html=1;whiteSpace=wrap;strokeColor=#56517e;fillColor=#d0cee2;align=center;verticalAlign=middle;rounded=0;" vertex="1" parent="1">
          <mxGeometry x="683" y="422" width="60" height="30" as="geometry" />
        </mxCell>
        <mxCell id="u2NiC6RPRk2Zida4HsQ2-65" value="0,N" style="text;html=1;whiteSpace=wrap;strokeColor=#10739e;fillColor=#b1ddf0;align=center;verticalAlign=middle;rounded=0;" vertex="1" parent="1">
          <mxGeometry x="943" y="422" width="60" height="30" as="geometry" />
        </mxCell>
        <mxCell id="u2NiC6RPRk2Zida4HsQ2-66" value="posts" style="whiteSpace=wrap;html=1;fillColor=#d5e8d4;strokeColor=#82b366;rounded=0;" vertex="1" parent="1">
          <mxGeometry x="780" y="215" width="120" height="60" as="geometry" />
        </mxCell>
        <mxCell id="u2NiC6RPRk2Zida4HsQ2-67" value="" style="edgeStyle=orthogonalEdgeStyle;rounded=0;orthogonalLoop=1;jettySize=auto;html=1;endArrow=none;endFill=0;" edge="1" parent="1" source="u2NiC6RPRk2Zida4HsQ2-68" target="u2NiC6RPRk2Zida4HsQ2-69">
          <mxGeometry relative="1" as="geometry" />
        </mxCell>
        <mxCell id="u2NiC6RPRk2Zida4HsQ2-68" value="postagem" style="rhombus;whiteSpace=wrap;html=1;" vertex="1" parent="1">
          <mxGeometry x="920" y="205" width="80" height="80" as="geometry" />
        </mxCell>
        <mxCell id="u2NiC6RPRk2Zida4HsQ2-69" value="curtidas/comentários" style="whiteSpace=wrap;html=1;fillColor=#f8cecc;strokeColor=#b85450;" vertex="1" parent="1">
          <mxGeometry x="900" y="55" width="120" height="60" as="geometry" />
        </mxCell>
        <mxCell id="u2NiC6RPRk2Zida4HsQ2-70" value="0,N" style="text;html=1;whiteSpace=wrap;strokeColor=#666666;fillColor=#f5f5f5;align=center;verticalAlign=middle;rounded=0;fontColor=#333333;" vertex="1" parent="1">
          <mxGeometry x="900" y="25" width="60" height="30" as="geometry" />
        </mxCell>
        <mxCell id="u2NiC6RPRk2Zida4HsQ2-71" value="1,N" style="text;html=1;whiteSpace=wrap;strokeColor=#666666;fillColor=#f5f5f5;align=center;verticalAlign=middle;rounded=0;fontColor=#333333;" vertex="1" parent="1">
          <mxGeometry x="1020" y="215" width="60" height="30" as="geometry" />
        </mxCell>
        <mxCell id="u2NiC6RPRk2Zida4HsQ2-72" value="0,N" style="text;html=1;whiteSpace=wrap;strokeColor=#d6b656;fillColor=#fff2cc;align=center;verticalAlign=middle;rounded=0;" vertex="1" parent="1">
          <mxGeometry x="780" y="185" width="60" height="30" as="geometry" />
        </mxCell>
        <mxCell id="u2NiC6RPRk2Zida4HsQ2-73" value="1,N" style="text;html=1;whiteSpace=wrap;strokeColor=#d6b656;fillColor=#fff2cc;align=center;verticalAlign=middle;rounded=0;" vertex="1" parent="1">
          <mxGeometry x="1020" y="245" width="60" height="30" as="geometry" />
        </mxCell>
        <mxCell id="u2NiC6RPRk2Zida4HsQ2-74" value="0,N" style="text;html=1;whiteSpace=wrap;strokeColor=#9673a6;fillColor=#e1d5e7;align=center;verticalAlign=middle;rounded=0;" vertex="1" parent="1">
          <mxGeometry x="1080" y="185" width="60" height="30" as="geometry" />
        </mxCell>
        <mxCell id="u2NiC6RPRk2Zida4HsQ2-75" value="lumin" style="rounded=0;whiteSpace=wrap;html=1;" vertex="1" parent="1">
          <mxGeometry x="1200" y="55" width="120" height="60" as="geometry" />
        </mxCell>
        <mxCell id="u2NiC6RPRk2Zida4HsQ2-76" value="usuário" style="shape=table;startSize=30;container=1;collapsible=0;childLayout=tableLayout;fixedRows=1;rowLines=0;fontStyle=0;strokeColor=default;fontSize=16;" vertex="1" parent="1">
          <mxGeometry x="1867" y="50" width="240" height="145" as="geometry" />
        </mxCell>
        <mxCell id="u2NiC6RPRk2Zida4HsQ2-77" value="" style="shape=tableRow;horizontal=0;startSize=0;swimlaneHead=0;swimlaneBody=0;top=0;left=0;bottom=0;right=0;collapsible=0;dropTarget=0;fillColor=none;points=[[0,0.5],[1,0.5]];portConstraint=eastwest;strokeColor=inherit;fontSize=16;" vertex="1" parent="u2NiC6RPRk2Zida4HsQ2-76">
          <mxGeometry y="30" width="240" height="30" as="geometry" />
        </mxCell>
        <mxCell id="u2NiC6RPRk2Zida4HsQ2-78" value="pk" style="shape=partialRectangle;html=1;whiteSpace=wrap;connectable=0;fillColor=none;top=0;left=0;bottom=0;right=0;overflow=hidden;pointerEvents=1;strokeColor=inherit;fontSize=16;" vertex="1" parent="u2NiC6RPRk2Zida4HsQ2-77">
          <mxGeometry width="53" height="30" as="geometry">
            <mxRectangle width="53" height="30" as="alternateBounds" />
          </mxGeometry>
        </mxCell>
        <mxCell id="u2NiC6RPRk2Zida4HsQ2-79" value="id int" style="shape=partialRectangle;html=1;whiteSpace=wrap;connectable=0;fillColor=none;top=0;left=0;bottom=0;right=0;align=left;spacingLeft=6;overflow=hidden;strokeColor=inherit;fontSize=16;" vertex="1" parent="u2NiC6RPRk2Zida4HsQ2-77">
          <mxGeometry x="53" width="187" height="30" as="geometry">
            <mxRectangle width="187" height="30" as="alternateBounds" />
          </mxGeometry>
        </mxCell>
        <mxCell id="u2NiC6RPRk2Zida4HsQ2-80" value="" style="shape=tableRow;horizontal=0;startSize=0;swimlaneHead=0;swimlaneBody=0;top=0;left=0;bottom=0;right=0;collapsible=0;dropTarget=0;fillColor=none;points=[[0,0.5],[1,0.5]];portConstraint=eastwest;strokeColor=inherit;fontSize=16;" vertex="1" parent="u2NiC6RPRk2Zida4HsQ2-76">
          <mxGeometry y="60" width="240" height="25" as="geometry" />
        </mxCell>
        <mxCell id="u2NiC6RPRk2Zida4HsQ2-81" value="" style="shape=partialRectangle;html=1;whiteSpace=wrap;connectable=0;fillColor=none;top=0;left=0;bottom=0;right=0;overflow=hidden;strokeColor=inherit;fontSize=16;" vertex="1" parent="u2NiC6RPRk2Zida4HsQ2-80">
          <mxGeometry width="53" height="25" as="geometry">
            <mxRectangle width="53" height="25" as="alternateBounds" />
          </mxGeometry>
        </mxCell>
        <mxCell id="u2NiC6RPRk2Zida4HsQ2-82" value="nome VARCHAR(120)" style="shape=partialRectangle;html=1;whiteSpace=wrap;connectable=0;fillColor=none;top=0;left=0;bottom=0;right=0;align=left;spacingLeft=6;overflow=hidden;strokeColor=inherit;fontSize=16;" vertex="1" parent="u2NiC6RPRk2Zida4HsQ2-80">
          <mxGeometry x="53" width="187" height="25" as="geometry">
            <mxRectangle width="187" height="25" as="alternateBounds" />
          </mxGeometry>
        </mxCell>
        <mxCell id="u2NiC6RPRk2Zida4HsQ2-83" value="" style="shape=tableRow;horizontal=0;startSize=0;swimlaneHead=0;swimlaneBody=0;top=0;left=0;bottom=0;right=0;collapsible=0;dropTarget=0;fillColor=none;points=[[0,0.5],[1,0.5]];portConstraint=eastwest;strokeColor=inherit;fontSize=16;" vertex="1" parent="u2NiC6RPRk2Zida4HsQ2-76">
          <mxGeometry y="85" width="240" height="30" as="geometry" />
        </mxCell>
        <mxCell id="u2NiC6RPRk2Zida4HsQ2-84" value="" style="shape=partialRectangle;html=1;whiteSpace=wrap;connectable=0;fillColor=none;top=0;left=0;bottom=0;right=0;overflow=hidden;strokeColor=inherit;fontSize=16;" vertex="1" parent="u2NiC6RPRk2Zida4HsQ2-83">
          <mxGeometry width="53" height="30" as="geometry">
            <mxRectangle width="53" height="30" as="alternateBounds" />
          </mxGeometry>
        </mxCell>
        <mxCell id="u2NiC6RPRk2Zida4HsQ2-85" value="e-mail VARCHAR(60)" style="shape=partialRectangle;html=1;whiteSpace=wrap;connectable=0;fillColor=none;top=0;left=0;bottom=0;right=0;align=left;spacingLeft=6;overflow=hidden;strokeColor=inherit;fontSize=16;" vertex="1" parent="u2NiC6RPRk2Zida4HsQ2-83">
          <mxGeometry x="53" width="187" height="30" as="geometry">
            <mxRectangle width="187" height="30" as="alternateBounds" />
          </mxGeometry>
        </mxCell>
        <mxCell id="u2NiC6RPRk2Zida4HsQ2-86" value="" style="shape=tableRow;horizontal=0;startSize=0;swimlaneHead=0;swimlaneBody=0;top=0;left=0;bottom=0;right=0;collapsible=0;dropTarget=0;fillColor=none;points=[[0,0.5],[1,0.5]];portConstraint=eastwest;strokeColor=inherit;fontSize=16;" vertex="1" parent="u2NiC6RPRk2Zida4HsQ2-76">
          <mxGeometry y="115" width="240" height="30" as="geometry" />
        </mxCell>
        <mxCell id="u2NiC6RPRk2Zida4HsQ2-87" value="" style="shape=partialRectangle;html=1;whiteSpace=wrap;connectable=0;fillColor=none;top=0;left=0;bottom=0;right=0;overflow=hidden;strokeColor=inherit;fontSize=16;" vertex="1" parent="u2NiC6RPRk2Zida4HsQ2-86">
          <mxGeometry width="53" height="30" as="geometry">
            <mxRectangle width="53" height="30" as="alternateBounds" />
          </mxGeometry>
        </mxCell>
        <mxCell id="u2NiC6RPRk2Zida4HsQ2-88" value="senha VARCHAR(80)" style="shape=partialRectangle;html=1;whiteSpace=wrap;connectable=0;fillColor=none;top=0;left=0;bottom=0;right=0;align=left;spacingLeft=6;overflow=hidden;strokeColor=inherit;fontSize=16;" vertex="1" parent="u2NiC6RPRk2Zida4HsQ2-86">
          <mxGeometry x="53" width="187" height="30" as="geometry">
            <mxRectangle width="187" height="30" as="alternateBounds" />
          </mxGeometry>
        </mxCell>
        <mxCell id="u2NiC6RPRk2Zida4HsQ2-89" value="0,N" style="text;html=1;whiteSpace=wrap;strokeColor=#6c8ebf;fillColor=#dae8fc;align=center;verticalAlign=middle;rounded=0;" vertex="1" parent="1">
          <mxGeometry x="1200" y="25" width="63" height="30" as="geometry" />
        </mxCell>
        <mxCell id="u2NiC6RPRk2Zida4HsQ2-90" value="produto" style="shape=table;startSize=30;container=1;collapsible=0;childLayout=tableLayout;fixedRows=1;rowLines=0;fontStyle=0;strokeColor=default;fontSize=16;" vertex="1" parent="1">
          <mxGeometry x="2203" y="50" width="240" height="295" as="geometry" />
        </mxCell>
        <mxCell id="u2NiC6RPRk2Zida4HsQ2-91" value="" style="shape=tableRow;horizontal=0;startSize=0;swimlaneHead=0;swimlaneBody=0;top=0;left=0;bottom=0;right=0;collapsible=0;dropTarget=0;fillColor=none;points=[[0,0.5],[1,0.5]];portConstraint=eastwest;strokeColor=inherit;fontSize=16;" vertex="1" parent="u2NiC6RPRk2Zida4HsQ2-90">
          <mxGeometry y="30" width="240" height="30" as="geometry" />
        </mxCell>
        <mxCell id="u2NiC6RPRk2Zida4HsQ2-92" value="pk" style="shape=partialRectangle;html=1;whiteSpace=wrap;connectable=0;fillColor=none;top=0;left=0;bottom=0;right=0;overflow=hidden;pointerEvents=1;strokeColor=inherit;fontSize=16;" vertex="1" parent="u2NiC6RPRk2Zida4HsQ2-91">
          <mxGeometry width="53" height="30" as="geometry">
            <mxRectangle width="53" height="30" as="alternateBounds" />
          </mxGeometry>
        </mxCell>
        <mxCell id="u2NiC6RPRk2Zida4HsQ2-93" value="id" style="shape=partialRectangle;html=1;whiteSpace=wrap;connectable=0;fillColor=none;top=0;left=0;bottom=0;right=0;align=left;spacingLeft=6;overflow=hidden;strokeColor=inherit;fontSize=16;" vertex="1" parent="u2NiC6RPRk2Zida4HsQ2-91">
          <mxGeometry x="53" width="187" height="30" as="geometry">
            <mxRectangle width="187" height="30" as="alternateBounds" />
          </mxGeometry>
        </mxCell>
        <mxCell id="u2NiC6RPRk2Zida4HsQ2-94" value="" style="shape=tableRow;horizontal=0;startSize=0;swimlaneHead=0;swimlaneBody=0;top=0;left=0;bottom=0;right=0;collapsible=0;dropTarget=0;fillColor=none;points=[[0,0.5],[1,0.5]];portConstraint=eastwest;strokeColor=inherit;fontSize=16;" vertex="1" parent="u2NiC6RPRk2Zida4HsQ2-90">
          <mxGeometry y="60" width="240" height="25" as="geometry" />
        </mxCell>
        <mxCell id="u2NiC6RPRk2Zida4HsQ2-95" value="" style="shape=partialRectangle;html=1;whiteSpace=wrap;connectable=0;fillColor=none;top=0;left=0;bottom=0;right=0;overflow=hidden;strokeColor=inherit;fontSize=16;" vertex="1" parent="u2NiC6RPRk2Zida4HsQ2-94">
          <mxGeometry width="53" height="25" as="geometry">
            <mxRectangle width="53" height="25" as="alternateBounds" />
          </mxGeometry>
        </mxCell>
        <mxCell id="u2NiC6RPRk2Zida4HsQ2-96" value="Preço float" style="shape=partialRectangle;html=1;whiteSpace=wrap;connectable=0;fillColor=none;top=0;left=0;bottom=0;right=0;align=left;spacingLeft=6;overflow=hidden;strokeColor=inherit;fontSize=16;" vertex="1" parent="u2NiC6RPRk2Zida4HsQ2-94">
          <mxGeometry x="53" width="187" height="25" as="geometry">
            <mxRectangle width="187" height="25" as="alternateBounds" />
          </mxGeometry>
        </mxCell>
        <mxCell id="u2NiC6RPRk2Zida4HsQ2-97" value="" style="shape=tableRow;horizontal=0;startSize=0;swimlaneHead=0;swimlaneBody=0;top=0;left=0;bottom=0;right=0;collapsible=0;dropTarget=0;fillColor=none;points=[[0,0.5],[1,0.5]];portConstraint=eastwest;strokeColor=inherit;fontSize=16;" vertex="1" parent="u2NiC6RPRk2Zida4HsQ2-90">
          <mxGeometry y="85" width="240" height="30" as="geometry" />
        </mxCell>
        <mxCell id="u2NiC6RPRk2Zida4HsQ2-98" value="" style="shape=partialRectangle;html=1;whiteSpace=wrap;connectable=0;fillColor=none;top=0;left=0;bottom=0;right=0;overflow=hidden;strokeColor=inherit;fontSize=16;" vertex="1" parent="u2NiC6RPRk2Zida4HsQ2-97">
          <mxGeometry width="53" height="30" as="geometry">
            <mxRectangle width="53" height="30" as="alternateBounds" />
          </mxGeometry>
        </mxCell>
        <mxCell id="u2NiC6RPRk2Zida4HsQ2-99" value="nome VARCHAL(150)" style="shape=partialRectangle;html=1;whiteSpace=wrap;connectable=0;fillColor=none;top=0;left=0;bottom=0;right=0;align=left;spacingLeft=6;overflow=hidden;strokeColor=inherit;fontSize=16;" vertex="1" parent="u2NiC6RPRk2Zida4HsQ2-97">
          <mxGeometry x="53" width="187" height="30" as="geometry">
            <mxRectangle width="187" height="30" as="alternateBounds" />
          </mxGeometry>
        </mxCell>
        <mxCell id="u2NiC6RPRk2Zida4HsQ2-100" value="" style="shape=tableRow;horizontal=0;startSize=0;swimlaneHead=0;swimlaneBody=0;top=0;left=0;bottom=0;right=0;collapsible=0;dropTarget=0;fillColor=none;points=[[0,0.5],[1,0.5]];portConstraint=eastwest;strokeColor=inherit;fontSize=16;" vertex="1" parent="u2NiC6RPRk2Zida4HsQ2-90">
          <mxGeometry y="115" width="240" height="30" as="geometry" />
        </mxCell>
        <mxCell id="u2NiC6RPRk2Zida4HsQ2-101" value="" style="shape=partialRectangle;html=1;whiteSpace=wrap;connectable=0;fillColor=none;top=0;left=0;bottom=0;right=0;overflow=hidden;strokeColor=inherit;fontSize=16;" vertex="1" parent="u2NiC6RPRk2Zida4HsQ2-100">
          <mxGeometry width="53" height="30" as="geometry">
            <mxRectangle width="53" height="30" as="alternateBounds" />
          </mxGeometry>
        </mxCell>
        <mxCell id="u2NiC6RPRk2Zida4HsQ2-102" value="descricao text" style="shape=partialRectangle;html=1;whiteSpace=wrap;connectable=0;fillColor=none;top=0;left=0;bottom=0;right=0;align=left;spacingLeft=6;overflow=hidden;strokeColor=inherit;fontSize=16;" vertex="1" parent="u2NiC6RPRk2Zida4HsQ2-100">
          <mxGeometry x="53" width="187" height="30" as="geometry">
            <mxRectangle width="187" height="30" as="alternateBounds" />
          </mxGeometry>
        </mxCell>
        <mxCell id="u2NiC6RPRk2Zida4HsQ2-103" value="" style="shape=tableRow;horizontal=0;startSize=0;swimlaneHead=0;swimlaneBody=0;top=0;left=0;bottom=0;right=0;collapsible=0;dropTarget=0;fillColor=none;points=[[0,0.5],[1,0.5]];portConstraint=eastwest;strokeColor=inherit;fontSize=16;" vertex="1" parent="u2NiC6RPRk2Zida4HsQ2-90">
          <mxGeometry y="145" width="240" height="30" as="geometry" />
        </mxCell>
        <mxCell id="u2NiC6RPRk2Zida4HsQ2-104" value="" style="shape=partialRectangle;html=1;whiteSpace=wrap;connectable=0;fillColor=none;top=0;left=0;bottom=0;right=0;overflow=hidden;strokeColor=inherit;fontSize=16;" vertex="1" parent="u2NiC6RPRk2Zida4HsQ2-103">
          <mxGeometry width="53" height="30" as="geometry">
            <mxRectangle width="53" height="30" as="alternateBounds" />
          </mxGeometry>
        </mxCell>
        <mxCell id="u2NiC6RPRk2Zida4HsQ2-105" value="quantidade int" style="shape=partialRectangle;html=1;whiteSpace=wrap;connectable=0;fillColor=none;top=0;left=0;bottom=0;right=0;align=left;spacingLeft=6;overflow=hidden;strokeColor=inherit;fontSize=16;" vertex="1" parent="u2NiC6RPRk2Zida4HsQ2-103">
          <mxGeometry x="53" width="187" height="30" as="geometry">
            <mxRectangle width="187" height="30" as="alternateBounds" />
          </mxGeometry>
        </mxCell>
        <mxCell id="u2NiC6RPRk2Zida4HsQ2-106" value="" style="shape=tableRow;horizontal=0;startSize=0;swimlaneHead=0;swimlaneBody=0;top=0;left=0;bottom=0;right=0;collapsible=0;dropTarget=0;fillColor=none;points=[[0,0.5],[1,0.5]];portConstraint=eastwest;strokeColor=inherit;fontSize=16;" vertex="1" parent="u2NiC6RPRk2Zida4HsQ2-90">
          <mxGeometry y="175" width="240" height="30" as="geometry" />
        </mxCell>
        <mxCell id="u2NiC6RPRk2Zida4HsQ2-107" value="" style="shape=partialRectangle;html=1;whiteSpace=wrap;connectable=0;fillColor=none;top=0;left=0;bottom=0;right=0;overflow=hidden;strokeColor=inherit;fontSize=16;" vertex="1" parent="u2NiC6RPRk2Zida4HsQ2-106">
          <mxGeometry width="53" height="30" as="geometry">
            <mxRectangle width="53" height="30" as="alternateBounds" />
          </mxGeometry>
        </mxCell>
        <mxCell id="u2NiC6RPRk2Zida4HsQ2-108" value="foto text" style="shape=partialRectangle;html=1;whiteSpace=wrap;connectable=0;fillColor=none;top=0;left=0;bottom=0;right=0;align=left;spacingLeft=6;overflow=hidden;strokeColor=inherit;fontSize=16;" vertex="1" parent="u2NiC6RPRk2Zida4HsQ2-106">
          <mxGeometry x="53" width="187" height="30" as="geometry">
            <mxRectangle width="187" height="30" as="alternateBounds" />
          </mxGeometry>
        </mxCell>
        <mxCell id="u2NiC6RPRk2Zida4HsQ2-109" value="" style="shape=tableRow;horizontal=0;startSize=0;swimlaneHead=0;swimlaneBody=0;top=0;left=0;bottom=0;right=0;collapsible=0;dropTarget=0;fillColor=none;points=[[0,0.5],[1,0.5]];portConstraint=eastwest;strokeColor=inherit;fontSize=16;" vertex="1" parent="u2NiC6RPRk2Zida4HsQ2-90">
          <mxGeometry y="205" width="240" height="30" as="geometry" />
        </mxCell>
        <mxCell id="u2NiC6RPRk2Zida4HsQ2-110" value="" style="shape=partialRectangle;html=1;whiteSpace=wrap;connectable=0;fillColor=none;top=0;left=0;bottom=0;right=0;overflow=hidden;strokeColor=inherit;fontSize=16;" vertex="1" parent="u2NiC6RPRk2Zida4HsQ2-109">
          <mxGeometry width="53" height="30" as="geometry">
            <mxRectangle width="53" height="30" as="alternateBounds" />
          </mxGeometry>
        </mxCell>
        <mxCell id="u2NiC6RPRk2Zida4HsQ2-111" value="categoria" style="shape=partialRectangle;html=1;whiteSpace=wrap;connectable=0;fillColor=none;top=0;left=0;bottom=0;right=0;align=left;spacingLeft=6;overflow=hidden;strokeColor=inherit;fontSize=16;" vertex="1" parent="u2NiC6RPRk2Zida4HsQ2-109">
          <mxGeometry x="53" width="187" height="30" as="geometry">
            <mxRectangle width="187" height="30" as="alternateBounds" />
          </mxGeometry>
        </mxCell>
        <mxCell id="u2NiC6RPRk2Zida4HsQ2-112" value="" style="shape=tableRow;horizontal=0;startSize=0;swimlaneHead=0;swimlaneBody=0;top=0;left=0;bottom=0;right=0;collapsible=0;dropTarget=0;fillColor=none;points=[[0,0.5],[1,0.5]];portConstraint=eastwest;strokeColor=inherit;fontSize=16;" vertex="1" parent="u2NiC6RPRk2Zida4HsQ2-90">
          <mxGeometry y="235" width="240" height="30" as="geometry" />
        </mxCell>
        <mxCell id="u2NiC6RPRk2Zida4HsQ2-113" value="" style="shape=partialRectangle;html=1;whiteSpace=wrap;connectable=0;fillColor=none;top=0;left=0;bottom=0;right=0;overflow=hidden;strokeColor=inherit;fontSize=16;" vertex="1" parent="u2NiC6RPRk2Zida4HsQ2-112">
          <mxGeometry width="53" height="30" as="geometry">
            <mxRectangle width="53" height="30" as="alternateBounds" />
          </mxGeometry>
        </mxCell>
        <mxCell id="u2NiC6RPRk2Zida4HsQ2-114" value="idcategoria" style="shape=partialRectangle;html=1;whiteSpace=wrap;connectable=0;fillColor=none;top=0;left=0;bottom=0;right=0;align=left;spacingLeft=6;overflow=hidden;strokeColor=inherit;fontSize=16;" vertex="1" parent="u2NiC6RPRk2Zida4HsQ2-112">
          <mxGeometry x="53" width="187" height="30" as="geometry">
            <mxRectangle width="187" height="30" as="alternateBounds" />
          </mxGeometry>
        </mxCell>
        <mxCell id="u2NiC6RPRk2Zida4HsQ2-115" value="" style="shape=tableRow;horizontal=0;startSize=0;swimlaneHead=0;swimlaneBody=0;top=0;left=0;bottom=0;right=0;collapsible=0;dropTarget=0;fillColor=none;points=[[0,0.5],[1,0.5]];portConstraint=eastwest;strokeColor=inherit;fontSize=16;" vertex="1" parent="u2NiC6RPRk2Zida4HsQ2-90">
          <mxGeometry y="265" width="240" height="30" as="geometry" />
        </mxCell>
        <mxCell id="u2NiC6RPRk2Zida4HsQ2-116" value="" style="shape=partialRectangle;html=1;whiteSpace=wrap;connectable=0;fillColor=none;top=0;left=0;bottom=0;right=0;overflow=hidden;strokeColor=inherit;fontSize=16;" vertex="1" parent="u2NiC6RPRk2Zida4HsQ2-115">
          <mxGeometry width="53" height="30" as="geometry">
            <mxRectangle width="53" height="30" as="alternateBounds" />
          </mxGeometry>
        </mxCell>
        <mxCell id="u2NiC6RPRk2Zida4HsQ2-117" value="idUsuario" style="shape=partialRectangle;html=1;whiteSpace=wrap;connectable=0;fillColor=none;top=0;left=0;bottom=0;right=0;align=left;spacingLeft=6;overflow=hidden;strokeColor=inherit;fontSize=16;" vertex="1" parent="u2NiC6RPRk2Zida4HsQ2-115">
          <mxGeometry x="53" width="187" height="30" as="geometry">
            <mxRectangle width="187" height="30" as="alternateBounds" />
          </mxGeometry>
        </mxCell>
        <mxCell id="u2NiC6RPRk2Zida4HsQ2-118" value="Ctegoria" style="shape=table;startSize=30;container=1;collapsible=0;childLayout=tableLayout;fixedRows=1;rowLines=0;fontStyle=0;strokeColor=default;fontSize=16;" vertex="1" parent="1">
          <mxGeometry x="1583" y="50" width="240" height="146" as="geometry" />
        </mxCell>
        <mxCell id="u2NiC6RPRk2Zida4HsQ2-119" value="" style="shape=tableRow;horizontal=0;startSize=0;swimlaneHead=0;swimlaneBody=0;top=0;left=0;bottom=0;right=0;collapsible=0;dropTarget=0;fillColor=none;points=[[0,0.5],[1,0.5]];portConstraint=eastwest;strokeColor=inherit;fontSize=16;" vertex="1" parent="u2NiC6RPRk2Zida4HsQ2-118">
          <mxGeometry y="30" width="240" height="33" as="geometry" />
        </mxCell>
        <mxCell id="u2NiC6RPRk2Zida4HsQ2-120" value="pk" style="shape=partialRectangle;html=1;whiteSpace=wrap;connectable=0;fillColor=none;top=0;left=0;bottom=0;right=0;overflow=hidden;pointerEvents=1;strokeColor=inherit;fontSize=16;" vertex="1" parent="u2NiC6RPRk2Zida4HsQ2-119">
          <mxGeometry width="53" height="33" as="geometry">
            <mxRectangle width="53" height="33" as="alternateBounds" />
          </mxGeometry>
        </mxCell>
        <mxCell id="u2NiC6RPRk2Zida4HsQ2-121" value="id int" style="shape=partialRectangle;html=1;whiteSpace=wrap;connectable=0;fillColor=none;top=0;left=0;bottom=0;right=0;align=left;spacingLeft=6;overflow=hidden;strokeColor=inherit;fontSize=16;" vertex="1" parent="u2NiC6RPRk2Zida4HsQ2-119">
          <mxGeometry x="53" width="187" height="33" as="geometry">
            <mxRectangle width="187" height="33" as="alternateBounds" />
          </mxGeometry>
        </mxCell>
        <mxCell id="u2NiC6RPRk2Zida4HsQ2-122" value="" style="shape=tableRow;horizontal=0;startSize=0;swimlaneHead=0;swimlaneBody=0;top=0;left=0;bottom=0;right=0;collapsible=0;dropTarget=0;fillColor=none;points=[[0,0.5],[1,0.5]];portConstraint=eastwest;strokeColor=inherit;fontSize=16;" vertex="1" parent="u2NiC6RPRk2Zida4HsQ2-118">
          <mxGeometry y="63" width="240" height="23" as="geometry" />
        </mxCell>
        <mxCell id="u2NiC6RPRk2Zida4HsQ2-123" value="" style="shape=partialRectangle;html=1;whiteSpace=wrap;connectable=0;fillColor=none;top=0;left=0;bottom=0;right=0;overflow=hidden;strokeColor=inherit;fontSize=16;" vertex="1" parent="u2NiC6RPRk2Zida4HsQ2-122">
          <mxGeometry width="53" height="23" as="geometry">
            <mxRectangle width="53" height="23" as="alternateBounds" />
          </mxGeometry>
        </mxCell>
        <mxCell id="u2NiC6RPRk2Zida4HsQ2-124" value="nome VARCHAL(150)" style="shape=partialRectangle;html=1;whiteSpace=wrap;connectable=0;fillColor=none;top=0;left=0;bottom=0;right=0;align=left;spacingLeft=6;overflow=hidden;strokeColor=inherit;fontSize=16;" vertex="1" parent="u2NiC6RPRk2Zida4HsQ2-122">
          <mxGeometry x="53" width="187" height="23" as="geometry">
            <mxRectangle width="187" height="23" as="alternateBounds" />
          </mxGeometry>
        </mxCell>
        <mxCell id="u2NiC6RPRk2Zida4HsQ2-125" value="" style="shape=tableRow;horizontal=0;startSize=0;swimlaneHead=0;swimlaneBody=0;top=0;left=0;bottom=0;right=0;collapsible=0;dropTarget=0;fillColor=none;points=[[0,0.5],[1,0.5]];portConstraint=eastwest;strokeColor=inherit;fontSize=16;" vertex="1" parent="u2NiC6RPRk2Zida4HsQ2-118">
          <mxGeometry y="86" width="240" height="30" as="geometry" />
        </mxCell>
        <mxCell id="u2NiC6RPRk2Zida4HsQ2-126" value="" style="shape=partialRectangle;html=1;whiteSpace=wrap;connectable=0;fillColor=none;top=0;left=0;bottom=0;right=0;overflow=hidden;strokeColor=inherit;fontSize=16;" vertex="1" parent="u2NiC6RPRk2Zida4HsQ2-125">
          <mxGeometry width="53" height="30" as="geometry">
            <mxRectangle width="53" height="30" as="alternateBounds" />
          </mxGeometry>
        </mxCell>
        <mxCell id="u2NiC6RPRk2Zida4HsQ2-127" value="" style="shape=partialRectangle;html=1;whiteSpace=wrap;connectable=0;fillColor=none;top=0;left=0;bottom=0;right=0;align=left;spacingLeft=6;overflow=hidden;strokeColor=inherit;fontSize=16;" vertex="1" parent="u2NiC6RPRk2Zida4HsQ2-125">
          <mxGeometry x="53" width="187" height="30" as="geometry">
            <mxRectangle width="187" height="30" as="alternateBounds" />
          </mxGeometry>
        </mxCell>
        <mxCell id="u2NiC6RPRk2Zida4HsQ2-128" value="" style="shape=tableRow;horizontal=0;startSize=0;swimlaneHead=0;swimlaneBody=0;top=0;left=0;bottom=0;right=0;collapsible=0;dropTarget=0;fillColor=none;points=[[0,0.5],[1,0.5]];portConstraint=eastwest;strokeColor=inherit;fontSize=16;" vertex="1" parent="u2NiC6RPRk2Zida4HsQ2-118">
          <mxGeometry y="116" width="240" height="30" as="geometry" />
        </mxCell>
        <mxCell id="u2NiC6RPRk2Zida4HsQ2-129" value="" style="shape=partialRectangle;html=1;whiteSpace=wrap;connectable=0;fillColor=none;top=0;left=0;bottom=0;right=0;overflow=hidden;strokeColor=inherit;fontSize=16;" vertex="1" parent="u2NiC6RPRk2Zida4HsQ2-128">
          <mxGeometry width="53" height="30" as="geometry">
            <mxRectangle width="53" height="30" as="alternateBounds" />
          </mxGeometry>
        </mxCell>
        <mxCell id="u2NiC6RPRk2Zida4HsQ2-130" value="" style="shape=partialRectangle;html=1;whiteSpace=wrap;connectable=0;fillColor=none;top=0;left=0;bottom=0;right=0;align=left;spacingLeft=6;overflow=hidden;strokeColor=inherit;fontSize=16;" vertex="1" parent="u2NiC6RPRk2Zida4HsQ2-128">
          <mxGeometry x="53" width="187" height="30" as="geometry">
            <mxRectangle width="187" height="30" as="alternateBounds" />
          </mxGeometry>
        </mxCell>
        <mxCell id="u2NiC6RPRk2Zida4HsQ2-131" value="usuario" style="shape=table;startSize=30;container=1;collapsible=0;childLayout=tableLayout;fixedRows=1;rowLines=0;fontStyle=0;strokeColor=default;fontSize=16;" vertex="1" parent="1">
          <mxGeometry x="1858" y="617" width="255" height="180" as="geometry" />
        </mxCell>
        <mxCell id="u2NiC6RPRk2Zida4HsQ2-132" value="" style="shape=tableRow;horizontal=0;startSize=0;swimlaneHead=0;swimlaneBody=0;top=0;left=0;bottom=0;right=0;collapsible=0;dropTarget=0;fillColor=none;points=[[0,0.5],[1,0.5]];portConstraint=eastwest;strokeColor=inherit;fontSize=16;" vertex="1" parent="u2NiC6RPRk2Zida4HsQ2-131">
          <mxGeometry y="30" width="255" height="30" as="geometry" />
        </mxCell>
        <mxCell id="u2NiC6RPRk2Zida4HsQ2-133" value="PK" style="shape=partialRectangle;html=1;whiteSpace=wrap;connectable=0;fillColor=none;top=0;left=0;bottom=0;right=0;overflow=hidden;pointerEvents=1;strokeColor=inherit;fontSize=16;" vertex="1" parent="u2NiC6RPRk2Zida4HsQ2-132">
          <mxGeometry width="57" height="30" as="geometry">
            <mxRectangle width="57" height="30" as="alternateBounds" />
          </mxGeometry>
        </mxCell>
        <mxCell id="u2NiC6RPRk2Zida4HsQ2-134" value="IdUsuário int" style="shape=partialRectangle;html=1;whiteSpace=wrap;connectable=0;fillColor=none;top=0;left=0;bottom=0;right=0;align=left;spacingLeft=6;overflow=hidden;strokeColor=inherit;fontSize=16;" vertex="1" parent="u2NiC6RPRk2Zida4HsQ2-132">
          <mxGeometry x="57" width="198" height="30" as="geometry">
            <mxRectangle width="198" height="30" as="alternateBounds" />
          </mxGeometry>
        </mxCell>
        <mxCell id="u2NiC6RPRk2Zida4HsQ2-135" value="" style="shape=tableRow;horizontal=0;startSize=0;swimlaneHead=0;swimlaneBody=0;top=0;left=0;bottom=0;right=0;collapsible=0;dropTarget=0;fillColor=none;points=[[0,0.5],[1,0.5]];portConstraint=eastwest;strokeColor=inherit;fontSize=16;" vertex="1" parent="u2NiC6RPRk2Zida4HsQ2-131">
          <mxGeometry y="60" width="255" height="30" as="geometry" />
        </mxCell>
        <mxCell id="u2NiC6RPRk2Zida4HsQ2-136" value="" style="shape=partialRectangle;html=1;whiteSpace=wrap;connectable=0;fillColor=none;top=0;left=0;bottom=0;right=0;overflow=hidden;strokeColor=inherit;fontSize=16;" vertex="1" parent="u2NiC6RPRk2Zida4HsQ2-135">
          <mxGeometry width="57" height="30" as="geometry">
            <mxRectangle width="57" height="30" as="alternateBounds" />
          </mxGeometry>
        </mxCell>
        <mxCell id="u2NiC6RPRk2Zida4HsQ2-137" value="Nome varchal (120)" style="shape=partialRectangle;html=1;whiteSpace=wrap;connectable=0;fillColor=none;top=0;left=0;bottom=0;right=0;align=left;spacingLeft=6;overflow=hidden;strokeColor=inherit;fontSize=16;" vertex="1" parent="u2NiC6RPRk2Zida4HsQ2-135">
          <mxGeometry x="57" width="198" height="30" as="geometry">
            <mxRectangle width="198" height="30" as="alternateBounds" />
          </mxGeometry>
        </mxCell>
        <mxCell id="u2NiC6RPRk2Zida4HsQ2-138" value="" style="shape=tableRow;horizontal=0;startSize=0;swimlaneHead=0;swimlaneBody=0;top=0;left=0;bottom=0;right=0;collapsible=0;dropTarget=0;fillColor=none;points=[[0,0.5],[1,0.5]];portConstraint=eastwest;strokeColor=inherit;fontSize=16;" vertex="1" parent="u2NiC6RPRk2Zida4HsQ2-131">
          <mxGeometry y="90" width="255" height="30" as="geometry" />
        </mxCell>
        <mxCell id="u2NiC6RPRk2Zida4HsQ2-139" value="" style="shape=partialRectangle;html=1;whiteSpace=wrap;connectable=0;fillColor=none;top=0;left=0;bottom=0;right=0;overflow=hidden;strokeColor=inherit;fontSize=16;" vertex="1" parent="u2NiC6RPRk2Zida4HsQ2-138">
          <mxGeometry width="57" height="30" as="geometry">
            <mxRectangle width="57" height="30" as="alternateBounds" />
          </mxGeometry>
        </mxCell>
        <mxCell id="u2NiC6RPRk2Zida4HsQ2-140" value="E-mail varchal (120)" style="shape=partialRectangle;html=1;whiteSpace=wrap;connectable=0;fillColor=none;top=0;left=0;bottom=0;right=0;align=left;spacingLeft=6;overflow=hidden;strokeColor=inherit;fontSize=16;" vertex="1" parent="u2NiC6RPRk2Zida4HsQ2-138">
          <mxGeometry x="57" width="198" height="30" as="geometry">
            <mxRectangle width="198" height="30" as="alternateBounds" />
          </mxGeometry>
        </mxCell>
        <mxCell id="u2NiC6RPRk2Zida4HsQ2-141" value="" style="shape=tableRow;horizontal=0;startSize=0;swimlaneHead=0;swimlaneBody=0;top=0;left=0;bottom=0;right=0;collapsible=0;dropTarget=0;fillColor=none;points=[[0,0.5],[1,0.5]];portConstraint=eastwest;strokeColor=inherit;fontSize=16;" vertex="1" parent="u2NiC6RPRk2Zida4HsQ2-131">
          <mxGeometry y="120" width="255" height="30" as="geometry" />
        </mxCell>
        <mxCell id="u2NiC6RPRk2Zida4HsQ2-142" value="" style="shape=partialRectangle;html=1;whiteSpace=wrap;connectable=0;fillColor=none;top=0;left=0;bottom=0;right=0;overflow=hidden;strokeColor=inherit;fontSize=16;" vertex="1" parent="u2NiC6RPRk2Zida4HsQ2-141">
          <mxGeometry width="57" height="30" as="geometry">
            <mxRectangle width="57" height="30" as="alternateBounds" />
          </mxGeometry>
        </mxCell>
        <mxCell id="u2NiC6RPRk2Zida4HsQ2-143" value="Senha varchar (80)" style="shape=partialRectangle;html=1;whiteSpace=wrap;connectable=0;fillColor=none;top=0;left=0;bottom=0;right=0;align=left;spacingLeft=6;overflow=hidden;strokeColor=inherit;fontSize=16;" vertex="1" parent="u2NiC6RPRk2Zida4HsQ2-141">
          <mxGeometry x="57" width="198" height="30" as="geometry">
            <mxRectangle width="198" height="30" as="alternateBounds" />
          </mxGeometry>
        </mxCell>
        <mxCell id="u2NiC6RPRk2Zida4HsQ2-144" value="" style="shape=tableRow;horizontal=0;startSize=0;swimlaneHead=0;swimlaneBody=0;top=0;left=0;bottom=0;right=0;collapsible=0;dropTarget=0;fillColor=none;points=[[0,0.5],[1,0.5]];portConstraint=eastwest;strokeColor=inherit;fontSize=16;" vertex="1" parent="u2NiC6RPRk2Zida4HsQ2-131">
          <mxGeometry y="150" width="255" height="30" as="geometry" />
        </mxCell>
        <mxCell id="u2NiC6RPRk2Zida4HsQ2-145" value="" style="shape=partialRectangle;html=1;whiteSpace=wrap;connectable=0;fillColor=none;top=0;left=0;bottom=0;right=0;overflow=hidden;pointerEvents=1;strokeColor=inherit;fontSize=16;" vertex="1" parent="u2NiC6RPRk2Zida4HsQ2-144">
          <mxGeometry width="57" height="30" as="geometry">
            <mxRectangle width="57" height="30" as="alternateBounds" />
          </mxGeometry>
        </mxCell>
        <mxCell id="u2NiC6RPRk2Zida4HsQ2-146" value="Telefone int" style="shape=partialRectangle;html=1;whiteSpace=wrap;connectable=0;fillColor=none;top=0;left=0;bottom=0;right=0;align=left;spacingLeft=6;overflow=hidden;strokeColor=inherit;fontSize=16;" vertex="1" parent="u2NiC6RPRk2Zida4HsQ2-144">
          <mxGeometry x="57" width="198" height="30" as="geometry">
            <mxRectangle width="198" height="30" as="alternateBounds" />
          </mxGeometry>
        </mxCell>
        <mxCell id="u2NiC6RPRk2Zida4HsQ2-147" value="postagem" style="shape=table;startSize=30;container=1;collapsible=0;childLayout=tableLayout;fixedRows=1;rowLines=0;fontStyle=0;strokeColor=default;fontSize=16;" vertex="1" parent="1">
          <mxGeometry x="1571" y="705" width="180" height="120" as="geometry" />
        </mxCell>
        <mxCell id="u2NiC6RPRk2Zida4HsQ2-148" value="" style="shape=tableRow;horizontal=0;startSize=0;swimlaneHead=0;swimlaneBody=0;top=0;left=0;bottom=0;right=0;collapsible=0;dropTarget=0;fillColor=none;points=[[0,0.5],[1,0.5]];portConstraint=eastwest;strokeColor=inherit;fontSize=16;" vertex="1" parent="u2NiC6RPRk2Zida4HsQ2-147">
          <mxGeometry y="30" width="180" height="30" as="geometry" />
        </mxCell>
        <mxCell id="u2NiC6RPRk2Zida4HsQ2-149" value="PK" style="shape=partialRectangle;html=1;whiteSpace=wrap;connectable=0;fillColor=none;top=0;left=0;bottom=0;right=0;overflow=hidden;pointerEvents=1;strokeColor=inherit;fontSize=16;" vertex="1" parent="u2NiC6RPRk2Zida4HsQ2-148">
          <mxGeometry width="40" height="30" as="geometry">
            <mxRectangle width="40" height="30" as="alternateBounds" />
          </mxGeometry>
        </mxCell>
        <mxCell id="u2NiC6RPRk2Zida4HsQ2-150" value="IdPostagem" style="shape=partialRectangle;html=1;whiteSpace=wrap;connectable=0;fillColor=none;top=0;left=0;bottom=0;right=0;align=left;spacingLeft=6;overflow=hidden;strokeColor=inherit;fontSize=16;" vertex="1" parent="u2NiC6RPRk2Zida4HsQ2-148">
          <mxGeometry x="40" width="140" height="30" as="geometry">
            <mxRectangle width="140" height="30" as="alternateBounds" />
          </mxGeometry>
        </mxCell>
        <mxCell id="u2NiC6RPRk2Zida4HsQ2-151" value="" style="shape=tableRow;horizontal=0;startSize=0;swimlaneHead=0;swimlaneBody=0;top=0;left=0;bottom=0;right=0;collapsible=0;dropTarget=0;fillColor=none;points=[[0,0.5],[1,0.5]];portConstraint=eastwest;strokeColor=inherit;fontSize=16;" vertex="1" parent="u2NiC6RPRk2Zida4HsQ2-147">
          <mxGeometry y="60" width="180" height="30" as="geometry" />
        </mxCell>
        <mxCell id="u2NiC6RPRk2Zida4HsQ2-152" value="FK" style="shape=partialRectangle;html=1;whiteSpace=wrap;connectable=0;fillColor=none;top=0;left=0;bottom=0;right=0;overflow=hidden;strokeColor=inherit;fontSize=16;" vertex="1" parent="u2NiC6RPRk2Zida4HsQ2-151">
          <mxGeometry width="40" height="30" as="geometry">
            <mxRectangle width="40" height="30" as="alternateBounds" />
          </mxGeometry>
        </mxCell>
        <mxCell id="u2NiC6RPRk2Zida4HsQ2-153" value="Usuario_id int" style="shape=partialRectangle;html=1;whiteSpace=wrap;connectable=0;fillColor=none;top=0;left=0;bottom=0;right=0;align=left;spacingLeft=6;overflow=hidden;strokeColor=inherit;fontSize=16;" vertex="1" parent="u2NiC6RPRk2Zida4HsQ2-151">
          <mxGeometry x="40" width="140" height="30" as="geometry">
            <mxRectangle width="140" height="30" as="alternateBounds" />
          </mxGeometry>
        </mxCell>
        <mxCell id="u2NiC6RPRk2Zida4HsQ2-154" value="" style="shape=tableRow;horizontal=0;startSize=0;swimlaneHead=0;swimlaneBody=0;top=0;left=0;bottom=0;right=0;collapsible=0;dropTarget=0;fillColor=none;points=[[0,0.5],[1,0.5]];portConstraint=eastwest;strokeColor=inherit;fontSize=16;" vertex="1" parent="u2NiC6RPRk2Zida4HsQ2-147">
          <mxGeometry y="90" width="180" height="30" as="geometry" />
        </mxCell>
        <mxCell id="u2NiC6RPRk2Zida4HsQ2-155" value="" style="shape=partialRectangle;html=1;whiteSpace=wrap;connectable=0;fillColor=none;top=0;left=0;bottom=0;right=0;overflow=hidden;pointerEvents=1;strokeColor=inherit;fontSize=16;" vertex="1" parent="u2NiC6RPRk2Zida4HsQ2-154">
          <mxGeometry width="40" height="30" as="geometry">
            <mxRectangle width="40" height="30" as="alternateBounds" />
          </mxGeometry>
        </mxCell>
        <mxCell id="u2NiC6RPRk2Zida4HsQ2-156" value="Descricao" style="shape=partialRectangle;html=1;whiteSpace=wrap;connectable=0;fillColor=none;top=0;left=0;bottom=0;right=0;align=left;spacingLeft=6;overflow=hidden;strokeColor=inherit;fontSize=16;" vertex="1" parent="u2NiC6RPRk2Zida4HsQ2-154">
          <mxGeometry x="40" width="140" height="30" as="geometry">
            <mxRectangle width="140" height="30" as="alternateBounds" />
          </mxGeometry>
        </mxCell>
        <mxCell id="u2NiC6RPRk2Zida4HsQ2-157" value="comentários" style="shape=table;startSize=30;container=1;collapsible=0;childLayout=tableLayout;fixedRows=1;rowLines=0;fontStyle=0;strokeColor=default;fontSize=16;" vertex="1" parent="1">
          <mxGeometry x="1858" y="867" width="253" height="120" as="geometry" />
        </mxCell>
        <mxCell id="u2NiC6RPRk2Zida4HsQ2-158" value="" style="shape=tableRow;horizontal=0;startSize=0;swimlaneHead=0;swimlaneBody=0;top=0;left=0;bottom=0;right=0;collapsible=0;dropTarget=0;fillColor=none;points=[[0,0.5],[1,0.5]];portConstraint=eastwest;strokeColor=inherit;fontSize=16;" vertex="1" parent="u2NiC6RPRk2Zida4HsQ2-157">
          <mxGeometry y="30" width="253" height="30" as="geometry" />
        </mxCell>
        <mxCell id="u2NiC6RPRk2Zida4HsQ2-159" value="PK" style="shape=partialRectangle;html=1;whiteSpace=wrap;connectable=0;fillColor=none;top=0;left=0;bottom=0;right=0;overflow=hidden;pointerEvents=1;strokeColor=inherit;fontSize=16;" vertex="1" parent="u2NiC6RPRk2Zida4HsQ2-158">
          <mxGeometry width="57" height="30" as="geometry">
            <mxRectangle width="57" height="30" as="alternateBounds" />
          </mxGeometry>
        </mxCell>
        <mxCell id="u2NiC6RPRk2Zida4HsQ2-160" value="IdComentarios" style="shape=partialRectangle;html=1;whiteSpace=wrap;connectable=0;fillColor=none;top=0;left=0;bottom=0;right=0;align=left;spacingLeft=6;overflow=hidden;strokeColor=inherit;fontSize=16;" vertex="1" parent="u2NiC6RPRk2Zida4HsQ2-158">
          <mxGeometry x="57" width="196" height="30" as="geometry">
            <mxRectangle width="196" height="30" as="alternateBounds" />
          </mxGeometry>
        </mxCell>
        <mxCell id="u2NiC6RPRk2Zida4HsQ2-161" value="" style="shape=tableRow;horizontal=0;startSize=0;swimlaneHead=0;swimlaneBody=0;top=0;left=0;bottom=0;right=0;collapsible=0;dropTarget=0;fillColor=none;points=[[0,0.5],[1,0.5]];portConstraint=eastwest;strokeColor=inherit;fontSize=16;" vertex="1" parent="u2NiC6RPRk2Zida4HsQ2-157">
          <mxGeometry y="60" width="253" height="30" as="geometry" />
        </mxCell>
        <mxCell id="u2NiC6RPRk2Zida4HsQ2-162" value="FK" style="shape=partialRectangle;html=1;whiteSpace=wrap;connectable=0;fillColor=none;top=0;left=0;bottom=0;right=0;overflow=hidden;strokeColor=inherit;fontSize=16;" vertex="1" parent="u2NiC6RPRk2Zida4HsQ2-161">
          <mxGeometry width="57" height="30" as="geometry">
            <mxRectangle width="57" height="30" as="alternateBounds" />
          </mxGeometry>
        </mxCell>
        <mxCell id="u2NiC6RPRk2Zida4HsQ2-163" value="Usuario_id int" style="shape=partialRectangle;html=1;whiteSpace=wrap;connectable=0;fillColor=none;top=0;left=0;bottom=0;right=0;align=left;spacingLeft=6;overflow=hidden;strokeColor=inherit;fontSize=16;" vertex="1" parent="u2NiC6RPRk2Zida4HsQ2-161">
          <mxGeometry x="57" width="196" height="30" as="geometry">
            <mxRectangle width="196" height="30" as="alternateBounds" />
          </mxGeometry>
        </mxCell>
        <mxCell id="u2NiC6RPRk2Zida4HsQ2-164" value="" style="shape=tableRow;horizontal=0;startSize=0;swimlaneHead=0;swimlaneBody=0;top=0;left=0;bottom=0;right=0;collapsible=0;dropTarget=0;fillColor=none;points=[[0,0.5],[1,0.5]];portConstraint=eastwest;strokeColor=inherit;fontSize=16;" vertex="1" parent="u2NiC6RPRk2Zida4HsQ2-157">
          <mxGeometry y="90" width="253" height="30" as="geometry" />
        </mxCell>
        <mxCell id="u2NiC6RPRk2Zida4HsQ2-165" value="FK" style="shape=partialRectangle;html=1;whiteSpace=wrap;connectable=0;fillColor=none;top=0;left=0;bottom=0;right=0;overflow=hidden;strokeColor=inherit;fontSize=16;" vertex="1" parent="u2NiC6RPRk2Zida4HsQ2-164">
          <mxGeometry width="57" height="30" as="geometry">
            <mxRectangle width="57" height="30" as="alternateBounds" />
          </mxGeometry>
        </mxCell>
        <mxCell id="u2NiC6RPRk2Zida4HsQ2-166" value="Postagem_id int" style="shape=partialRectangle;html=1;whiteSpace=wrap;connectable=0;fillColor=none;top=0;left=0;bottom=0;right=0;align=left;spacingLeft=6;overflow=hidden;strokeColor=inherit;fontSize=16;" vertex="1" parent="u2NiC6RPRk2Zida4HsQ2-164">
          <mxGeometry x="57" width="196" height="30" as="geometry">
            <mxRectangle width="196" height="30" as="alternateBounds" />
          </mxGeometry>
        </mxCell>
        <mxCell id="u2NiC6RPRk2Zida4HsQ2-167" value="Curtidas" style="shape=table;startSize=30;container=1;collapsible=0;childLayout=tableLayout;fixedRows=1;rowLines=0;fontStyle=0;strokeColor=default;fontSize=16;" vertex="1" parent="1">
          <mxGeometry x="2233" y="697" width="210" height="150" as="geometry" />
        </mxCell>
        <mxCell id="u2NiC6RPRk2Zida4HsQ2-168" value="" style="shape=tableRow;horizontal=0;startSize=0;swimlaneHead=0;swimlaneBody=0;top=0;left=0;bottom=0;right=0;collapsible=0;dropTarget=0;fillColor=none;points=[[0,0.5],[1,0.5]];portConstraint=eastwest;strokeColor=inherit;fontSize=16;" vertex="1" parent="u2NiC6RPRk2Zida4HsQ2-167">
          <mxGeometry y="30" width="210" height="30" as="geometry" />
        </mxCell>
        <mxCell id="u2NiC6RPRk2Zida4HsQ2-169" value="PK" style="shape=partialRectangle;html=1;whiteSpace=wrap;connectable=0;fillColor=none;top=0;left=0;bottom=0;right=0;overflow=hidden;pointerEvents=1;strokeColor=inherit;fontSize=16;" vertex="1" parent="u2NiC6RPRk2Zida4HsQ2-168">
          <mxGeometry width="47" height="30" as="geometry">
            <mxRectangle width="47" height="30" as="alternateBounds" />
          </mxGeometry>
        </mxCell>
        <mxCell id="u2NiC6RPRk2Zida4HsQ2-170" value="IdCurtidas int" style="shape=partialRectangle;html=1;whiteSpace=wrap;connectable=0;fillColor=none;top=0;left=0;bottom=0;right=0;align=left;spacingLeft=6;overflow=hidden;strokeColor=inherit;fontSize=16;" vertex="1" parent="u2NiC6RPRk2Zida4HsQ2-168">
          <mxGeometry x="47" width="163" height="30" as="geometry">
            <mxRectangle width="163" height="30" as="alternateBounds" />
          </mxGeometry>
        </mxCell>
        <mxCell id="u2NiC6RPRk2Zida4HsQ2-171" value="" style="shape=tableRow;horizontal=0;startSize=0;swimlaneHead=0;swimlaneBody=0;top=0;left=0;bottom=0;right=0;collapsible=0;dropTarget=0;fillColor=none;points=[[0,0.5],[1,0.5]];portConstraint=eastwest;strokeColor=inherit;fontSize=16;" vertex="1" parent="u2NiC6RPRk2Zida4HsQ2-167">
          <mxGeometry y="60" width="210" height="30" as="geometry" />
        </mxCell>
        <mxCell id="u2NiC6RPRk2Zida4HsQ2-172" value="" style="shape=partialRectangle;html=1;whiteSpace=wrap;connectable=0;fillColor=none;top=0;left=0;bottom=0;right=0;overflow=hidden;strokeColor=inherit;fontSize=16;" vertex="1" parent="u2NiC6RPRk2Zida4HsQ2-171">
          <mxGeometry width="47" height="30" as="geometry">
            <mxRectangle width="47" height="30" as="alternateBounds" />
          </mxGeometry>
        </mxCell>
        <mxCell id="u2NiC6RPRk2Zida4HsQ2-173" value="Horario DATETIME" style="shape=partialRectangle;html=1;whiteSpace=wrap;connectable=0;fillColor=none;top=0;left=0;bottom=0;right=0;align=left;spacingLeft=6;overflow=hidden;strokeColor=inherit;fontSize=16;" vertex="1" parent="u2NiC6RPRk2Zida4HsQ2-171">
          <mxGeometry x="47" width="163" height="30" as="geometry">
            <mxRectangle width="163" height="30" as="alternateBounds" />
          </mxGeometry>
        </mxCell>
        <mxCell id="u2NiC6RPRk2Zida4HsQ2-174" value="" style="shape=tableRow;horizontal=0;startSize=0;swimlaneHead=0;swimlaneBody=0;top=0;left=0;bottom=0;right=0;collapsible=0;dropTarget=0;fillColor=none;points=[[0,0.5],[1,0.5]];portConstraint=eastwest;strokeColor=inherit;fontSize=16;" vertex="1" parent="u2NiC6RPRk2Zida4HsQ2-167">
          <mxGeometry y="90" width="210" height="30" as="geometry" />
        </mxCell>
        <mxCell id="u2NiC6RPRk2Zida4HsQ2-175" value="FK" style="shape=partialRectangle;html=1;whiteSpace=wrap;connectable=0;fillColor=none;top=0;left=0;bottom=0;right=0;overflow=hidden;pointerEvents=1;strokeColor=inherit;fontSize=16;" vertex="1" parent="u2NiC6RPRk2Zida4HsQ2-174">
          <mxGeometry width="47" height="30" as="geometry">
            <mxRectangle width="47" height="30" as="alternateBounds" />
          </mxGeometry>
        </mxCell>
        <mxCell id="u2NiC6RPRk2Zida4HsQ2-176" value="Usuario_id int" style="shape=partialRectangle;html=1;whiteSpace=wrap;connectable=0;fillColor=none;top=0;left=0;bottom=0;right=0;align=left;spacingLeft=6;overflow=hidden;strokeColor=inherit;fontSize=16;" vertex="1" parent="u2NiC6RPRk2Zida4HsQ2-174">
          <mxGeometry x="47" width="163" height="30" as="geometry">
            <mxRectangle width="163" height="30" as="alternateBounds" />
          </mxGeometry>
        </mxCell>
        <mxCell id="u2NiC6RPRk2Zida4HsQ2-177" value="" style="shape=tableRow;horizontal=0;startSize=0;swimlaneHead=0;swimlaneBody=0;top=0;left=0;bottom=0;right=0;collapsible=0;dropTarget=0;fillColor=none;points=[[0,0.5],[1,0.5]];portConstraint=eastwest;strokeColor=inherit;fontSize=16;" vertex="1" parent="u2NiC6RPRk2Zida4HsQ2-167">
          <mxGeometry y="120" width="210" height="30" as="geometry" />
        </mxCell>
        <mxCell id="u2NiC6RPRk2Zida4HsQ2-178" value="FK" style="shape=partialRectangle;html=1;whiteSpace=wrap;connectable=0;fillColor=none;top=0;left=0;bottom=0;right=0;overflow=hidden;pointerEvents=1;strokeColor=inherit;fontSize=16;" vertex="1" parent="u2NiC6RPRk2Zida4HsQ2-177">
          <mxGeometry width="47" height="30" as="geometry">
            <mxRectangle width="47" height="30" as="alternateBounds" />
          </mxGeometry>
        </mxCell>
        <mxCell id="u2NiC6RPRk2Zida4HsQ2-179" value="Postagem_id int" style="shape=partialRectangle;html=1;whiteSpace=wrap;connectable=0;fillColor=none;top=0;left=0;bottom=0;right=0;align=left;spacingLeft=6;overflow=hidden;strokeColor=inherit;fontSize=16;" vertex="1" parent="u2NiC6RPRk2Zida4HsQ2-177">
          <mxGeometry x="47" width="163" height="30" as="geometry">
            <mxRectangle width="163" height="30" as="alternateBounds" />
          </mxGeometry>
        </mxCell>
        <mxCell id="u2NiC6RPRk2Zida4HsQ2-180" value="Midia" style="shape=table;startSize=30;container=1;collapsible=0;childLayout=tableLayout;fixedRows=1;rowLines=0;fontStyle=0;strokeColor=default;fontSize=16;" vertex="1" parent="1">
          <mxGeometry x="1571" y="567" width="180" height="120" as="geometry" />
        </mxCell>
        <mxCell id="u2NiC6RPRk2Zida4HsQ2-181" value="" style="shape=tableRow;horizontal=0;startSize=0;swimlaneHead=0;swimlaneBody=0;top=0;left=0;bottom=0;right=0;collapsible=0;dropTarget=0;fillColor=none;points=[[0,0.5],[1,0.5]];portConstraint=eastwest;strokeColor=inherit;fontSize=16;" vertex="1" parent="u2NiC6RPRk2Zida4HsQ2-180">
          <mxGeometry y="30" width="180" height="30" as="geometry" />
        </mxCell>
        <mxCell id="u2NiC6RPRk2Zida4HsQ2-182" value="PK" style="shape=partialRectangle;html=1;whiteSpace=wrap;connectable=0;fillColor=none;top=0;left=0;bottom=0;right=0;overflow=hidden;pointerEvents=1;strokeColor=inherit;fontSize=16;" vertex="1" parent="u2NiC6RPRk2Zida4HsQ2-181">
          <mxGeometry width="40" height="30" as="geometry">
            <mxRectangle width="40" height="30" as="alternateBounds" />
          </mxGeometry>
        </mxCell>
        <mxCell id="u2NiC6RPRk2Zida4HsQ2-183" value="IdMidia" style="shape=partialRectangle;html=1;whiteSpace=wrap;connectable=0;fillColor=none;top=0;left=0;bottom=0;right=0;align=left;spacingLeft=6;overflow=hidden;strokeColor=inherit;fontSize=16;" vertex="1" parent="u2NiC6RPRk2Zida4HsQ2-181">
          <mxGeometry x="40" width="140" height="30" as="geometry">
            <mxRectangle width="140" height="30" as="alternateBounds" />
          </mxGeometry>
        </mxCell>
        <mxCell id="u2NiC6RPRk2Zida4HsQ2-184" value="" style="shape=tableRow;horizontal=0;startSize=0;swimlaneHead=0;swimlaneBody=0;top=0;left=0;bottom=0;right=0;collapsible=0;dropTarget=0;fillColor=none;points=[[0,0.5],[1,0.5]];portConstraint=eastwest;strokeColor=inherit;fontSize=16;" vertex="1" parent="u2NiC6RPRk2Zida4HsQ2-180">
          <mxGeometry y="60" width="180" height="30" as="geometry" />
        </mxCell>
        <mxCell id="u2NiC6RPRk2Zida4HsQ2-185" value="FK" style="shape=partialRectangle;html=1;whiteSpace=wrap;connectable=0;fillColor=none;top=0;left=0;bottom=0;right=0;overflow=hidden;strokeColor=inherit;fontSize=16;" vertex="1" parent="u2NiC6RPRk2Zida4HsQ2-184">
          <mxGeometry width="40" height="30" as="geometry">
            <mxRectangle width="40" height="30" as="alternateBounds" />
          </mxGeometry>
        </mxCell>
        <mxCell id="u2NiC6RPRk2Zida4HsQ2-186" value="IdPostagem" style="shape=partialRectangle;html=1;whiteSpace=wrap;connectable=0;fillColor=none;top=0;left=0;bottom=0;right=0;align=left;spacingLeft=6;overflow=hidden;strokeColor=inherit;fontSize=16;" vertex="1" parent="u2NiC6RPRk2Zida4HsQ2-184">
          <mxGeometry x="40" width="140" height="30" as="geometry">
            <mxRectangle width="140" height="30" as="alternateBounds" />
          </mxGeometry>
        </mxCell>
        <mxCell id="u2NiC6RPRk2Zida4HsQ2-187" value="" style="shape=tableRow;horizontal=0;startSize=0;swimlaneHead=0;swimlaneBody=0;top=0;left=0;bottom=0;right=0;collapsible=0;dropTarget=0;fillColor=none;points=[[0,0.5],[1,0.5]];portConstraint=eastwest;strokeColor=inherit;fontSize=16;" vertex="1" parent="u2NiC6RPRk2Zida4HsQ2-180">
          <mxGeometry y="90" width="180" height="30" as="geometry" />
        </mxCell>
        <mxCell id="u2NiC6RPRk2Zida4HsQ2-188" value="" style="shape=partialRectangle;html=1;whiteSpace=wrap;connectable=0;fillColor=none;top=0;left=0;bottom=0;right=0;overflow=hidden;pointerEvents=1;strokeColor=inherit;fontSize=16;" vertex="1" parent="u2NiC6RPRk2Zida4HsQ2-187">
          <mxGeometry width="40" height="30" as="geometry">
            <mxRectangle width="40" height="30" as="alternateBounds" />
          </mxGeometry>
        </mxCell>
        <mxCell id="u2NiC6RPRk2Zida4HsQ2-189" value="Midia" style="shape=partialRectangle;html=1;whiteSpace=wrap;connectable=0;fillColor=none;top=0;left=0;bottom=0;right=0;align=left;spacingLeft=6;overflow=hidden;strokeColor=inherit;fontSize=16;" vertex="1" parent="u2NiC6RPRk2Zida4HsQ2-187">
          <mxGeometry x="40" width="140" height="30" as="geometry">
            <mxRectangle width="140" height="30" as="alternateBounds" />
          </mxGeometry>
        </mxCell>
        <mxCell id="u2NiC6RPRk2Zida4HsQ2-190" style="edgeStyle=orthogonalEdgeStyle;rounded=0;orthogonalLoop=1;jettySize=auto;html=1;entryX=-0.001;entryY=0.278;entryDx=0;entryDy=0;endArrow=ERzeroToMany;endFill=0;startArrow=ERoneToMany;startFill=0;exitX=1;exitY=0.5;exitDx=0;exitDy=0;entryPerimeter=0;" edge="1" parent="1" source="u2NiC6RPRk2Zida4HsQ2-151" target="u2NiC6RPRk2Zida4HsQ2-132">
          <mxGeometry relative="1" as="geometry">
            <mxPoint x="1761" y="807" as="sourcePoint" />
            <Array as="points">
              <mxPoint x="1781" y="780" />
              <mxPoint x="1781" y="847" />
              <mxPoint x="1531" y="847" />
              <mxPoint x="1531" y="547" />
              <mxPoint x="1841" y="547" />
              <mxPoint x="1841" y="655" />
            </Array>
          </mxGeometry>
        </mxCell>
        <mxCell id="u2NiC6RPRk2Zida4HsQ2-191" style="edgeStyle=orthogonalEdgeStyle;rounded=0;orthogonalLoop=1;jettySize=auto;html=1;entryX=0;entryY=0.767;entryDx=0;entryDy=0;startArrow=ERzeroToMany;startFill=0;endArrow=ERoneToMany;endFill=0;entryPerimeter=0;" edge="1" parent="1" source="u2NiC6RPRk2Zida4HsQ2-132" target="u2NiC6RPRk2Zida4HsQ2-168">
          <mxGeometry relative="1" as="geometry" />
        </mxCell>
        <mxCell id="u2NiC6RPRk2Zida4HsQ2-192" style="edgeStyle=orthogonalEdgeStyle;rounded=0;orthogonalLoop=1;jettySize=auto;html=1;endArrow=ERzeroToMany;endFill=0;startArrow=ERoneToMany;startFill=0;exitX=0.003;exitY=0.328;exitDx=0;exitDy=0;exitPerimeter=0;entryX=0.008;entryY=0.384;entryDx=0;entryDy=0;entryPerimeter=0;" edge="1" parent="1" source="u2NiC6RPRk2Zida4HsQ2-184" target="u2NiC6RPRk2Zida4HsQ2-148">
          <mxGeometry relative="1" as="geometry">
            <mxPoint x="1755" y="574" as="sourcePoint" />
            <mxPoint x="1571" y="772" as="targetPoint" />
            <Array as="points">
              <mxPoint x="1541" y="637" />
              <mxPoint x="1541" y="747" />
            </Array>
          </mxGeometry>
        </mxCell>
        <mxCell id="u2NiC6RPRk2Zida4HsQ2-193" value="Prestador de servicos" style="shape=table;startSize=30;container=1;collapsible=0;childLayout=tableLayout;fixedRows=1;rowLines=0;fontStyle=0;strokeColor=default;fontSize=16;" vertex="1" parent="1">
          <mxGeometry x="1871" y="443" width="180" height="150" as="geometry" />
        </mxCell>
        <mxCell id="u2NiC6RPRk2Zida4HsQ2-194" value="" style="shape=tableRow;horizontal=0;startSize=0;swimlaneHead=0;swimlaneBody=0;top=0;left=0;bottom=0;right=0;collapsible=0;dropTarget=0;fillColor=none;points=[[0,0.5],[1,0.5]];portConstraint=eastwest;strokeColor=inherit;fontSize=16;" vertex="1" parent="u2NiC6RPRk2Zida4HsQ2-193">
          <mxGeometry y="30" width="180" height="30" as="geometry" />
        </mxCell>
        <mxCell id="u2NiC6RPRk2Zida4HsQ2-195" value="PK" style="shape=partialRectangle;html=1;whiteSpace=wrap;connectable=0;fillColor=none;top=0;left=0;bottom=0;right=0;overflow=hidden;pointerEvents=1;strokeColor=inherit;fontSize=16;" vertex="1" parent="u2NiC6RPRk2Zida4HsQ2-194">
          <mxGeometry width="40" height="30" as="geometry">
            <mxRectangle width="40" height="30" as="alternateBounds" />
          </mxGeometry>
        </mxCell>
        <mxCell id="u2NiC6RPRk2Zida4HsQ2-196" value="IdPrestador" style="shape=partialRectangle;html=1;whiteSpace=wrap;connectable=0;fillColor=none;top=0;left=0;bottom=0;right=0;align=left;spacingLeft=6;overflow=hidden;strokeColor=inherit;fontSize=16;" vertex="1" parent="u2NiC6RPRk2Zida4HsQ2-194">
          <mxGeometry x="40" width="140" height="30" as="geometry">
            <mxRectangle width="140" height="30" as="alternateBounds" />
          </mxGeometry>
        </mxCell>
        <mxCell id="u2NiC6RPRk2Zida4HsQ2-197" value="" style="shape=tableRow;horizontal=0;startSize=0;swimlaneHead=0;swimlaneBody=0;top=0;left=0;bottom=0;right=0;collapsible=0;dropTarget=0;fillColor=none;points=[[0,0.5],[1,0.5]];portConstraint=eastwest;strokeColor=inherit;fontSize=16;" vertex="1" parent="u2NiC6RPRk2Zida4HsQ2-193">
          <mxGeometry y="60" width="180" height="30" as="geometry" />
        </mxCell>
        <mxCell id="u2NiC6RPRk2Zida4HsQ2-198" value="" style="shape=partialRectangle;html=1;whiteSpace=wrap;connectable=0;fillColor=none;top=0;left=0;bottom=0;right=0;overflow=hidden;strokeColor=inherit;fontSize=16;" vertex="1" parent="u2NiC6RPRk2Zida4HsQ2-197">
          <mxGeometry width="40" height="30" as="geometry">
            <mxRectangle width="40" height="30" as="alternateBounds" />
          </mxGeometry>
        </mxCell>
        <mxCell id="u2NiC6RPRk2Zida4HsQ2-199" value="Identificador" style="shape=partialRectangle;html=1;whiteSpace=wrap;connectable=0;fillColor=none;top=0;left=0;bottom=0;right=0;align=left;spacingLeft=6;overflow=hidden;strokeColor=inherit;fontSize=16;" vertex="1" parent="u2NiC6RPRk2Zida4HsQ2-197">
          <mxGeometry x="40" width="140" height="30" as="geometry">
            <mxRectangle width="140" height="30" as="alternateBounds" />
          </mxGeometry>
        </mxCell>
        <mxCell id="u2NiC6RPRk2Zida4HsQ2-200" value="" style="shape=tableRow;horizontal=0;startSize=0;swimlaneHead=0;swimlaneBody=0;top=0;left=0;bottom=0;right=0;collapsible=0;dropTarget=0;fillColor=none;points=[[0,0.5],[1,0.5]];portConstraint=eastwest;strokeColor=inherit;fontSize=16;" vertex="1" parent="u2NiC6RPRk2Zida4HsQ2-193">
          <mxGeometry y="90" width="180" height="30" as="geometry" />
        </mxCell>
        <mxCell id="u2NiC6RPRk2Zida4HsQ2-201" value="" style="shape=partialRectangle;html=1;whiteSpace=wrap;connectable=0;fillColor=none;top=0;left=0;bottom=0;right=0;overflow=hidden;strokeColor=inherit;fontSize=16;" vertex="1" parent="u2NiC6RPRk2Zida4HsQ2-200">
          <mxGeometry width="40" height="30" as="geometry">
            <mxRectangle width="40" height="30" as="alternateBounds" />
          </mxGeometry>
        </mxCell>
        <mxCell id="u2NiC6RPRk2Zida4HsQ2-202" value="Certificados" style="shape=partialRectangle;html=1;whiteSpace=wrap;connectable=0;fillColor=none;top=0;left=0;bottom=0;right=0;align=left;spacingLeft=6;overflow=hidden;strokeColor=inherit;fontSize=16;" vertex="1" parent="u2NiC6RPRk2Zida4HsQ2-200">
          <mxGeometry x="40" width="140" height="30" as="geometry">
            <mxRectangle width="140" height="30" as="alternateBounds" />
          </mxGeometry>
        </mxCell>
        <mxCell id="u2NiC6RPRk2Zida4HsQ2-203" value="" style="shape=tableRow;horizontal=0;startSize=0;swimlaneHead=0;swimlaneBody=0;top=0;left=0;bottom=0;right=0;collapsible=0;dropTarget=0;fillColor=none;points=[[0,0.5],[1,0.5]];portConstraint=eastwest;strokeColor=inherit;fontSize=16;" vertex="1" parent="u2NiC6RPRk2Zida4HsQ2-193">
          <mxGeometry y="120" width="180" height="30" as="geometry" />
        </mxCell>
        <mxCell id="u2NiC6RPRk2Zida4HsQ2-204" value="FK" style="shape=partialRectangle;html=1;whiteSpace=wrap;connectable=0;fillColor=none;top=0;left=0;bottom=0;right=0;overflow=hidden;strokeColor=inherit;fontSize=16;" vertex="1" parent="u2NiC6RPRk2Zida4HsQ2-203">
          <mxGeometry width="40" height="30" as="geometry">
            <mxRectangle width="40" height="30" as="alternateBounds" />
          </mxGeometry>
        </mxCell>
        <mxCell id="u2NiC6RPRk2Zida4HsQ2-205" value="Tipo_id" style="shape=partialRectangle;html=1;whiteSpace=wrap;connectable=0;fillColor=none;top=0;left=0;bottom=0;right=0;align=left;spacingLeft=6;overflow=hidden;strokeColor=inherit;fontSize=16;" vertex="1" parent="u2NiC6RPRk2Zida4HsQ2-203">
          <mxGeometry x="40" width="140" height="30" as="geometry">
            <mxRectangle width="140" height="30" as="alternateBounds" />
          </mxGeometry>
        </mxCell>
        <mxCell id="u2NiC6RPRk2Zida4HsQ2-206" style="edgeStyle=orthogonalEdgeStyle;rounded=0;orthogonalLoop=1;jettySize=auto;html=1;entryX=1;entryY=0.5;entryDx=0;entryDy=0;endArrow=none;endFill=0;" edge="1" parent="1" source="u2NiC6RPRk2Zida4HsQ2-207" target="u2NiC6RPRk2Zida4HsQ2-194">
          <mxGeometry relative="1" as="geometry" />
        </mxCell>
        <mxCell id="u2NiC6RPRk2Zida4HsQ2-207" value="Tipo Prestador" style="shape=table;startSize=30;container=1;collapsible=0;childLayout=tableLayout;fixedRows=1;rowLines=0;fontStyle=0;strokeColor=default;fontSize=16;" vertex="1" parent="1">
          <mxGeometry x="2088" y="443" width="180" height="90" as="geometry" />
        </mxCell>
        <mxCell id="u2NiC6RPRk2Zida4HsQ2-208" value="" style="shape=tableRow;horizontal=0;startSize=0;swimlaneHead=0;swimlaneBody=0;top=0;left=0;bottom=0;right=0;collapsible=0;dropTarget=0;fillColor=none;points=[[0,0.5],[1,0.5]];portConstraint=eastwest;strokeColor=inherit;fontSize=16;" vertex="1" parent="u2NiC6RPRk2Zida4HsQ2-207">
          <mxGeometry y="30" width="180" height="30" as="geometry" />
        </mxCell>
        <mxCell id="u2NiC6RPRk2Zida4HsQ2-209" value="PK" style="shape=partialRectangle;html=1;whiteSpace=wrap;connectable=0;fillColor=none;top=0;left=0;bottom=0;right=0;overflow=hidden;pointerEvents=1;strokeColor=inherit;fontSize=16;" vertex="1" parent="u2NiC6RPRk2Zida4HsQ2-208">
          <mxGeometry width="40" height="30" as="geometry">
            <mxRectangle width="40" height="30" as="alternateBounds" />
          </mxGeometry>
        </mxCell>
        <mxCell id="u2NiC6RPRk2Zida4HsQ2-210" value="IdTipo" style="shape=partialRectangle;html=1;whiteSpace=wrap;connectable=0;fillColor=none;top=0;left=0;bottom=0;right=0;align=left;spacingLeft=6;overflow=hidden;strokeColor=inherit;fontSize=16;" vertex="1" parent="u2NiC6RPRk2Zida4HsQ2-208">
          <mxGeometry x="40" width="140" height="30" as="geometry">
            <mxRectangle width="140" height="30" as="alternateBounds" />
          </mxGeometry>
        </mxCell>
        <mxCell id="u2NiC6RPRk2Zida4HsQ2-211" value="" style="shape=tableRow;horizontal=0;startSize=0;swimlaneHead=0;swimlaneBody=0;top=0;left=0;bottom=0;right=0;collapsible=0;dropTarget=0;fillColor=none;points=[[0,0.5],[1,0.5]];portConstraint=eastwest;strokeColor=inherit;fontSize=16;" vertex="1" parent="u2NiC6RPRk2Zida4HsQ2-207">
          <mxGeometry y="60" width="180" height="30" as="geometry" />
        </mxCell>
        <mxCell id="u2NiC6RPRk2Zida4HsQ2-212" value="" style="shape=partialRectangle;html=1;whiteSpace=wrap;connectable=0;fillColor=none;top=0;left=0;bottom=0;right=0;overflow=hidden;strokeColor=inherit;fontSize=16;" vertex="1" parent="u2NiC6RPRk2Zida4HsQ2-211">
          <mxGeometry width="40" height="30" as="geometry">
            <mxRectangle width="40" height="30" as="alternateBounds" />
          </mxGeometry>
        </mxCell>
        <mxCell id="u2NiC6RPRk2Zida4HsQ2-213" value="Tipo" style="shape=partialRectangle;html=1;whiteSpace=wrap;connectable=0;fillColor=none;top=0;left=0;bottom=0;right=0;align=left;spacingLeft=6;overflow=hidden;strokeColor=inherit;fontSize=16;" vertex="1" parent="u2NiC6RPRk2Zida4HsQ2-211">
          <mxGeometry x="40" width="140" height="30" as="geometry">
            <mxRectangle width="140" height="30" as="alternateBounds" />
          </mxGeometry>
        </mxCell>
        <mxCell id="u2NiC6RPRk2Zida4HsQ2-214" style="edgeStyle=orthogonalEdgeStyle;rounded=0;orthogonalLoop=1;jettySize=auto;html=1;endArrow=ERoneToMany;endFill=0;entryX=0;entryY=0.5;entryDx=0;entryDy=0;startArrow=ERzeroToMany;startFill=0;" edge="1" parent="1">
          <mxGeometry relative="1" as="geometry">
            <mxPoint x="1858" y="977" as="sourcePoint" />
            <mxPoint x="1858" y="667" as="targetPoint" />
            <Array as="points">
              <mxPoint x="1821" y="977" />
              <mxPoint x="1821" y="667" />
            </Array>
          </mxGeometry>
        </mxCell>
        <mxCell id="u2NiC6RPRk2Zida4HsQ2-215" style="edgeStyle=orthogonalEdgeStyle;rounded=0;orthogonalLoop=1;jettySize=auto;html=1;endArrow=ERoneToMany;endFill=0;startArrow=ERoneToMany;startFill=0;entryX=1;entryY=0.5;entryDx=0;entryDy=0;" edge="1" parent="1" source="u2NiC6RPRk2Zida4HsQ2-164" target="u2NiC6RPRk2Zida4HsQ2-148">
          <mxGeometry relative="1" as="geometry">
            <mxPoint x="1723" y="812" as="targetPoint" />
            <Array as="points">
              <mxPoint x="1985" y="1015" />
              <mxPoint x="1801" y="1015" />
              <mxPoint x="1801" y="750" />
            </Array>
          </mxGeometry>
        </mxCell>
        <mxCell id="u2NiC6RPRk2Zida4HsQ2-216" style="edgeStyle=orthogonalEdgeStyle;rounded=0;orthogonalLoop=1;jettySize=auto;html=1;entryX=0;entryY=0.5;entryDx=0;entryDy=0;" edge="1" parent="1" target="u2NiC6RPRk2Zida4HsQ2-177">
          <mxGeometry relative="1" as="geometry">
            <mxPoint x="1661" y="825" as="sourcePoint" />
            <Array as="points">
              <mxPoint x="1661" y="1065" />
              <mxPoint x="2191" y="1065" />
              <mxPoint x="2191" y="832" />
            </Array>
          </mxGeometry>
        </mxCell>
      </root>
    </mxGraphModel>
  </diagram>
</mxfile>
